<svg xmlns="http://www.w3.org/2000/svg" viewBox="0 0 72 72">
  <defs>
    <linearGradient id="学院-a" x1="31.729%" x2="31.729%" y1="1.259%" y2="100%">
      <stop offset=".034%" stop-color="#0169F5"/>
      <stop offset="100%" stop-color="#7ECFFF"/>
    </linearGradient>
    <linearGradient id="学院-b" x1="50%" x2="50%" y1="104.223%" y2="3.092%">
      <stop offset="0%" stop-color="#6EC2FE" stop-opacity="0"/>
      <stop offset="100%" stop-color="#7CCDFF"/>
    </linearGradient>
    <linearGradient id="学院-c" x1="20.43%" x2="56.792%" y1="18.545%" y2="86.563%">
      <stop offset="0%" stop-color="#004DB5"/>
      <stop offset="17.821%" stop-color="#0A63DB"/>
      <stop offset="100%" stop-color="#3896F9"/>
    </linearGradient>
  </defs>
  <g fill="none" fill-rule="evenodd">
    <rect width="72" height="72"/>
    <g transform="translate(1.048 12)">
      <path fill="url(#学院-a)" d="M44.738272,47.6959228 C43.5572439,47.2205363 42.6068132,46.3114828 42.0780268,45.160403 L41.977948,44.9270169 L41.977948,44.9268492 L37.9284837,36.2870705 L36.3837701,32.9912829 L41.1546559,22.8130476 L46.571,34.369 L46.621,34.369 L57.9126063,10.2806667 C58.182628,9.70459483 57.9345253,9.01870052 57.3584535,8.74867885 C57.2054412,8.67695753 57.0385233,8.63977869 56.869536,8.63977869 L44.6176187,8.63977869 L39.5643606,19.4202065 L34.7934748,29.5987298 L31.657,36.287 L31.6580991,36.2870705 L31.657,36.288 L27.608835,44.926872 C26.5965378,47.4647208 23.7185757,48.7014247 21.1807269,47.6891275 C19.9988875,47.2177153 19.047268,46.3105252 18.5185723,45.1602549 L18.4185293,44.9270169 L18.4185293,44.9268492 L18.242748,44.5521708 L18.242,44.551 L0.436687533,6.56353752 C-0.643391204,4.25924645 0.349028971,1.51567265 2.65332003,0.435593915 C3.2653653,0.148713022 3.93303176,5.68434189e-14 4.60897558,5.68434189e-14 L26.0680678,5.68434189e-14 C28.7493583,5.68434189e-14 31.1887299,1.55071902 32.3266151,3.97858551 L33.2028915,5.84826619 L28.4317178,16.0262135 L25.5913233,9.9659491 C25.2120228,9.15667372 24.398906,8.63977869 23.5051524,8.63977869 L12.7639199,8.63977869 C12.1277042,8.63977869 11.6119494,9.15553345 11.6119494,9.79174918 C11.6119494,9.96073648 11.6491283,10.1276544 11.7208496,10.2806667 L23.011,34.369 L23.015,34.369 L30.022,19.42 L30.021725,19.4187666 L34.793,9.241 L37.2605696,3.97835703 C38.3985048,1.55061469 40.8378106,5.68434189e-14 43.5190098,5.68434189e-14 L65.0243678,5.68434189e-14 C67.5692308,5.68434189e-14 69.6322498,2.06301903 69.6322498,4.60788197 C69.6322498,5.28382579 69.4835368,5.95149225 69.1966559,6.56353752 L51.367,44.6 L51.3674503,44.6011295 L51.2148142,44.9270169 L51.21,44.927 L51.1171996,45.1448914 C50.0232227,47.552568 47.2156724,48.6931242 44.738272,47.6959228 Z"/>
      <path fill="url(#学院-b)" d="M53.0673605,1.53654867e-13 L52.7918127,0.00539198551 C50.1410798,0.109312343 47.8736666,1.70595362 46.8038441,3.97610865 L46.8038441,3.97610865 L44.6176187,8.63977869 L39.5643606,19.4202065 L35.7069625,27.647829 L26.1659625,27.647829 L30.022,19.42 L30.021725,19.4187666 L34.793,9.241 L37.2605696,3.97835703 C38.3985048,1.55061469 40.8378106,0 43.5190098,0 L53.0673605,1.53654867e-13 Z"/>
      <path fill="url(#学院-c)" d="M44.6176187,8.63977869 L46.8038441,3.97610865 C47.8736666,1.70595362 50.1410798,0.109312343 52.7918127,0.00539198551 L53.0673605,-1.33226763e-14 L65.0243678,6.03961325e-14 C67.5692308,6.03961325e-14 69.6322498,2.06301903 69.6322498,4.60788197 C69.6322498,5.28382579 69.4835368,5.95149225 69.1966559,6.56353752 L62.245631,21.391 L53.137631,20.465 L57.9126063,10.2806667 C58.182628,9.70459483 57.9345253,9.01870052 57.3584535,8.74867885 C57.2054412,8.67695753 57.0385233,8.63977869 56.869536,8.63977869 L44.6176187,8.63977869 Z"/>
    </g>
  </g>
</svg>
