<?xml version="1.0" encoding="UTF-8"?>
<svg width="62px" height="62px" viewBox="0 0 62 62" version="1.1" xmlns="http://www.w3.org/2000/svg" xmlns:xlink="http://www.w3.org/1999/xlink">
    <title>wps logo/白色</title>
    <defs>
        <rect id="path-1" x="0" y="0" width="62" height="62"></rect>
        <filter id="filter-3">
            <feColorMatrix in="SourceGraphic" type="matrix" values="0 0 0 0 1.000000 0 0 0 0 1.000000 0 0 0 0 1.000000 0 0 0 1.000000 0"></feColorMatrix>
        </filter>
    </defs>
    <g id="页面-1" stroke="none" stroke-width="1" fill="none" fill-rule="evenodd">
        <g id="02状态标注" transform="translate(-193.000000, -2157.000000)">
            <g id="头图视觉备份-3" transform="translate(163.000000, 1749.000000)">
                <g id="w" transform="translate(30.000000, 408.000000)">
                    <mask id="mask-2" fill="white">
                        <use xlink:href="#path-1"></use>
                    </mask>
                    <g id="蒙版"></g>
                    <g filter="url(#filter-3)">
                        <g mask="url(#mask-2)">
                            <g transform="translate(2.000000, 8.000000)" fill="#FFFFFF" id="形状">
                                <path d="M40.805989,7.5982053 L42.5036435,4.06610667 L42.5066648,4.06837115 L42.5495346,3.97902135 C43.4653032,2.11157075 45.3543379,0.808004288 47.5554078,0.729552814 L47.6604539,0.726745687 L47.7659558,0.725806452 L55.3913873,0.725806452 C57.5292637,0.725806452 59.262355,2.45889774 59.262355,4.59677419 C59.262355,5.16461789 59.1374249,5.72550798 58.8964233,6.23967208 L43.7903226,38.7888218 L43.7815352,38.8009929 C42.9205408,40.9400068 40.4885536,41.9760465 38.3495396,41.1150521 C37.3223699,40.7015966 36.5028351,39.8976581 36.069029,38.8818843 L31.331129,28.4409677 L35.3390323,19.8904839 L39.931507,29.598871 L49.555573,8.97681837 C49.7824116,8.49287467 49.5739866,7.91667181 49.0900429,7.68983328 C48.9615011,7.62958197 48.8212775,7.59834894 48.6793154,7.59834894 L40.805989,7.5982053 Z M23.959523,38.788841 C23.1091171,40.920825 20.6914123,41.9597494 18.5594283,41.1093435 C17.531553,40.6993446 16.7109726,39.896962 16.2773258,38.8818286 L1.13287354,6.23967208 C0.225526094,4.30389412 1.05923375,1.99908558 2.99501172,1.09173813 C3.50917582,0.850736586 4.07006591,0.725806452 4.6379096,0.725806452 L22.6651626,0.725806452 C24.9176484,0.725806452 26.9669042,2.02852717 27.9228135,4.06811779 L28.6589516,5.63879032 L24.6508065,14.1890323 L22.1985544,8.71228828 C21.8799135,8.03243604 21.1968342,7.5982053 20.4460139,7.5982053 L11.42257,7.5982053 C10.8881008,7.5982053 10.454828,8.03147812 10.454828,8.56594723 C10.454828,8.70790928 10.486061,8.84813289 10.5463124,8.97667472 L20.097636,29.598871 L25.9870715,17.0404839 L29.9949194,8.48879032 L32.0677066,4.06792586 C33.0236579,2.02843953 35.0728584,0.725806452 37.3252676,0.725806452 L45.3466009,0.725806452 L45.241099,0.726745687 L45.136053,0.729552814 C42.9699207,0.806759026 41.1059964,2.07049636 40.1745208,3.890524 L40.1301797,3.97902135 L40.08731,4.06837115 L23.959523,38.788841 Z"></path>
                            </g>
                        </g>
                    </g>
                </g>
            </g>
        </g>
    </g>
</svg>