<svg xmlns="http://www.w3.org/2000/svg" xmlns:xlink="http://www.w3.org/1999/xlink" viewBox="0 0 100 100">
  <defs>
    <linearGradient id="icon2-b" x1="100%" x2="0%" y1="33.749%" y2="33.749%">
      <stop offset="0%" stop-color="#FF995B"/>
      <stop offset="100%" stop-color="#FC3336"/>
    </linearGradient>
    <path id="icon2-a" d="M2.71850433,0.661257811 L54.0027212,0.661257811 C55.4635316,0.661257811 56.6477525,1.84547864 56.6477525,3.30628905 L56.6477525,61.0561379 C56.6477525,62.5169483 55.4635316,63.7011691 54.0027212,63.7011691 L2.71850433,63.7011691 C1.25769392,63.7011691 0.0734730901,62.5169483 0.0734730901,61.0561379 L0.0734730901,3.30628905 C0.0734730901,1.84547864 1.25769392,0.661257811 2.71850433,0.661257811 Z"/>
    <linearGradient id="icon2-c" x1="84.524%" x2="21.961%" y1="50%" y2="102.516%">
      <stop offset="0%" stop-color="#FFA389"/>
      <stop offset="100%" stop-color="#D81616"/>
    </linearGradient>
    <filter id="icon2-e" width="192.2%" height="172%" x="-46.1%" y="-36%" filterUnits="objectBoundingBox">
      <feGaussianBlur in="SourceGraphic" stdDeviation="4.918"/>
    </filter>
    <path id="icon2-g" d="M1.32251562,0.491220088 L44.5246926,0.491220088 C45.2550978,0.491220088 45.8472082,1.0833305 45.8472082,1.81373571 C45.8472082,2.54414092 45.2550978,3.13625133 44.5246926,3.13625133 L1.32251562,3.13625133 C0.592110412,3.13625133 -2.09668786e-14,2.54414092 -2.10563274e-14,1.81373571 C-2.11457763e-14,1.0833305 0.592110412,0.491220088 1.32251562,0.491220088 Z M1.32251562,7.54463674 L25.1277968,7.54463674 C25.858202,7.54463674 26.4503124,8.13674715 26.4503124,8.86715236 C26.4503124,9.59755757 25.858202,10.189668 25.1277968,10.189668 L1.32251562,10.189668 C0.592110412,10.189668 -2.09668786e-14,9.59755757 -2.10563274e-14,8.86715236 C-2.11457763e-14,8.13674715 0.592110412,7.54463674 1.32251562,7.54463674 Z"/>
    <filter id="icon2-f" width="108.7%" height="141.2%" x="-6.5%" y="-10.3%" filterUnits="objectBoundingBox">
      <feOffset dx="-1" dy="1" in="SourceAlpha" result="shadowOffsetOuter1"/>
      <feGaussianBlur in="shadowOffsetOuter1" result="shadowBlurOuter1" stdDeviation=".5"/>
      <feColorMatrix in="shadowBlurOuter1" values="0 0 0 0 0.979393116   0 0 0 0 0.215607351   0 0 0 0 0.154504489  0 0 0 0.541657561 0"/>
    </filter>
    <linearGradient id="icon2-h" x1="52.343%" x2="18.226%" y1="50%" y2="89.579%">
      <stop offset="0%" stop-color="#FFF"/>
      <stop offset="100%" stop-color="#ECECEC"/>
    </linearGradient>
    <linearGradient id="icon2-i" x1="30.95%" x2="104.931%" y1="94.043%" y2="-7.578%">
      <stop offset="0%" stop-color="#C4C4C4"/>
      <stop offset="100%" stop-color="#FFF"/>
    </linearGradient>
    <linearGradient id="icon2-l" x1="-13.571%" x2="88.736%" y1="86.552%" y2="36.018%">
      <stop offset="0%" stop-color="#C5C5C5"/>
      <stop offset="100%" stop-color="#F7F7F7"/>
    </linearGradient>
    <path id="icon2-k" d="M7.60930013,0.201331553 L7.61085144,3.76821773 C14.0288587,4.01161114 15.1165738,7.51975808 16.0240989,9.24861725 C17.8939486,14.1626157 13.9417664,18.7761951 13.9417664,18.7761951 C15.1679659,10.6283379 9.4978354,9.76024493 7.60916157,9.69432858 L7.60930013,12.942005 C7.31984613,13.2104471 6.8745323,13.2104471 6.58507831,12.942005 L0.217090497,7.03627955 C-0.0723634989,6.76783748 -0.0723634989,6.35484969 0.217090497,6.08640764 L6.58507831,0.201331553 C6.8745323,-0.0671105176 7.31984613,-0.0671105176 7.60930013,0.201331553 Z"/>
    <filter id="icon2-j" width="163.5%" height="158.6%" x="-37.8%" y="-22.6%" filterUnits="objectBoundingBox">
      <feMorphology in="SourceAlpha" operator="dilate" radius=".25" result="shadowSpreadOuter1"/>
      <feOffset dx="-1" dy="1" in="shadowSpreadOuter1" result="shadowOffsetOuter1"/>
      <feGaussianBlur in="shadowOffsetOuter1" result="shadowBlurOuter1" stdDeviation="1.5"/>
      <feComposite in="shadowBlurOuter1" in2="SourceAlpha" operator="out" result="shadowBlurOuter1"/>
      <feColorMatrix in="shadowBlurOuter1" values="0 0 0 0 0.708644701   0 0 0 0 0   0 0 0 0 0  0 0 0 0.606861888 0"/>
    </filter>
  </defs>
  <g fill="none" fill-rule="evenodd">
    <rect width="99.818" height="99.818"/>
    <g transform="translate(10 7)">
      <g transform="translate(.735 17.311)">
        <mask id="icon2-d" fill="#fff">
          <use xlink:href="#icon2-a"/>
        </mask>
        <use fill="url(#icon2-b)" xlink:href="#icon2-a"/>
        <path fill="url(#icon2-c)" fill-rule="nonzero" d="M54.0027212,0.661257811 C55.4635316,0.661257811 56.6477525,1.84547864 56.6477525,3.30628905 L56.6477525,61.0561379 C56.6477525,62.5169483 55.4635316,63.7011691 54.0027212,63.7011691 L2.71850433,63.7011691 C1.25769392,63.7011691 0.0734730901,62.5169483 0.0734730901,61.0561379 L0.0734730901,3.30628905 C0.0734730901,1.84547864 1.25769392,0.661257811 2.71850433,0.661257811 L54.0027212,0.661257811 Z M54.0027212,1.5502822 L2.71850433,1.5502822 C1.79717932,1.5502822 1.04157565,2.25981962 0.968318592,3.16226919 L0.96249748,3.30628905 L0.96249748,61.0561379 C0.96249748,61.9774629 1.6720349,62.7330666 2.57448447,62.8063236 L2.71850433,62.8121447 L54.0027212,62.8121447 C54.9240462,62.8121447 55.6796499,62.1026073 55.752907,61.2001577 L55.7587281,61.0561379 L55.7587281,3.30628905 C55.7587281,2.38496404 55.0491907,1.62936037 54.1467411,1.55610331 L54.0027212,1.5502822 Z" mask="url(#icon2-d)"/>
        <rect width="32" height="41" x="16.477" y="7.714" fill="#E70000" filter="url(#icon2-e)" rx="1.61"/>
      </g>
      <g transform="translate(7.788 28.649)">
        <text fill="#F8F8F8" font-family="PingFangSC-Medium, PingFang SC" font-size="12.343" font-weight="400">
          <tspan x="21.307" y="48.354">.doc</tspan>
        </text>
        <use fill="#000" filter="url(#icon2-f)" xlink:href="#icon2-g"/>
        <use fill="#FFF" xlink:href="#icon2-g"/>
      </g>
      <g transform="translate(5.217)">
        <path fill="url(#icon2-h)" d="M15.7232413,3.63691079 C15.7232413,2.31725082 16.8049139,1.24745503 18.1392247,1.24745503 L69.5292063,1.14694618 C70.8635171,1.14694618 71.9451897,2.21674196 71.9451897,3.53640194 L72.2975207,61.6475866 C72.2975207,62.9672466 71.215848,64.0370424 69.8815372,64.0370424 L18.3531399,64.1868575 C17.0188291,64.1868575 15.9371565,63.1170617 15.9371565,61.7974017 L15.7232413,3.63691079 Z"/>
        <path fill="url(#icon2-i)" fill-rule="nonzero" d="M69.5292063,0.742844185 L18.1384344,0.843353811 C16.5827272,0.843353038 15.3191393,2.09306663 15.3191393,3.63691079 L15.5330572,61.798888 C15.5330545,63.3412459 16.7966424,64.5909595 18.3531399,64.5909595 L69.8827121,64.4411427 C71.4380348,64.4411444 72.7016227,63.1914308 72.7016227,61.6475866 L72.3492843,3.53395189 C72.3492917,1.99255777 71.0857038,0.742844185 69.5292063,0.742844185 Z M18.1392247,1.65155703 L69.5299966,1.5510474 C70.6413304,1.5510474 71.5410877,2.44092615 71.5410877,3.53640194 L71.8934261,61.6500367 C71.8934261,62.7430624 70.9936613,63.6329404 69.8815372,63.6329404 L18.3519651,63.7827572 C17.2410159,63.7827572 16.3412585,62.8928775 16.3412585,61.7974017 L16.1273405,3.63542451 C16.1273405,2.541435 17.0271007,1.65155703 18.1392247,1.65155703 Z"/>
        <path fill="#FD463D" d="M23.4011792 12.4618021L64.6195827 12.4618021C65.2891209 12.4618021 65.8318887 13.0045699 65.8318887 13.674108 65.8318887 14.3436462 65.2891209 14.886414 64.6195827 14.886414L23.4011792 14.886414C22.7316411 14.886414 22.1888732 14.3436462 22.1888732 13.674108 22.1888732 13.0045699 22.7316411 12.4618021 23.4011792 12.4618021zM23.4011792 19.735638L43.606279 19.735638C44.2758171 19.735638 44.818585 20.2784059 44.818585 20.947944 44.818585 21.6174821 44.2758171 22.1602499 43.606279 22.1602499L23.4011792 22.1602499C22.7316411 22.1602499 22.1888732 21.6174821 22.1888732 20.947944 22.1888732 20.2784059 22.7316411 19.735638 23.4011792 19.735638z"/>
        <path fill="#FD463D" d="M7.60930013,0.201331553 L7.61085144,3.76821773 C14.0288587,4.01161114 15.1165738,7.51975808 16.0240989,9.24861725 C17.8939486,14.1626157 13.9417664,18.7761951 13.9417664,18.7761951 C15.1679659,10.6283379 9.4978354,9.76024493 7.60916157,9.69432858 L7.60930013,12.942005 C7.31984613,13.2104471 6.8745323,13.2104471 6.58507831,12.942005 L0.217090497,7.03627955 C-0.0723634989,6.76783748 -0.0723634989,6.35484969 0.217090497,6.08640764 L6.58507831,0.201331553 C6.8745323,-0.0671105176 7.31984613,-0.0671105176 7.60930013,0.201331553 Z" transform="translate(22.189 40.749)"/>
        <g transform="rotate(-165 13.65 38.918)">
          <use fill="#000" filter="url(#icon2-j)" xlink:href="#icon2-k"/>
          <use fill="#F7F7F7" stroke="url(#icon2-l)" stroke-width=".5" xlink:href="#icon2-k"/>
        </g>
        <text fill="#FD463D" font-family="PingFangSC-Medium, PingFang SC" font-size="12.343" font-weight="400">
          <tspan x="42.394" y="56.982">.pdf</tspan>
        </text>
      </g>
    </g>
  </g>
</svg>
