<svg xmlns="http://www.w3.org/2000/svg" xmlns:xlink="http://www.w3.org/1999/xlink" viewBox="0 0 100 100">
  <defs>
    <linearGradient id="icon6-b" x1="100%" x2="0%" y1="33.749%" y2="33.749%">
      <stop offset="0%" stop-color="#FF995B"/>
      <stop offset="100%" stop-color="#FC3336"/>
    </linearGradient>
    <rect id="icon6-a" width="60.21" height="64.675" x=".111" y=".449" rx="2.235"/>
    <linearGradient id="icon6-c" x1="87.151%" x2="19.828%" y1="50%" y2="102.516%">
      <stop offset="0%" stop-color="#FFA389"/>
      <stop offset="100%" stop-color="#D81616"/>
    </linearGradient>
    <filter id="icon6-e" width="162.8%" height="192.2%" x="-31.4%" y="-46.1%" filterUnits="objectBoundingBox">
      <feGaussianBlur in="SourceGraphic" stdDeviation="4.918"/>
    </filter>
    <rect id="icon6-g" width="36.066" height="2.459" x="21.237" y="13.86" rx="1.23"/>
    <filter id="icon6-f" width="111.1%" height="262.7%" x="-8.3%" y="-40.7%" filterUnits="objectBoundingBox">
      <feOffset dx="-1" dy="1" in="SourceAlpha" result="shadowOffsetOuter1"/>
      <feGaussianBlur in="shadowOffsetOuter1" result="shadowBlurOuter1" stdDeviation=".5"/>
      <feColorMatrix in="shadowBlurOuter1" values="0 0 0 0 0.979393116   0 0 0 0 0.215607351   0 0 0 0 0.154504489  0 0 0 0.541657561 0"/>
    </filter>
    <rect id="icon6-i" width="36.066" height="2.459" x="21.237" y="21.237" rx="1.23"/>
    <filter id="icon6-h" width="111.1%" height="262.7%" x="-8.3%" y="-40.7%" filterUnits="objectBoundingBox">
      <feOffset dx="-1" dy="1" in="SourceAlpha" result="shadowOffsetOuter1"/>
      <feGaussianBlur in="shadowOffsetOuter1" result="shadowBlurOuter1" stdDeviation=".5"/>
      <feColorMatrix in="shadowBlurOuter1" values="0 0 0 0 0.979393116   0 0 0 0 0.215607351   0 0 0 0 0.154504489  0 0 0 0.541657561 0"/>
    </filter>
    <linearGradient id="icon6-j" x1="52.909%" x2="10.548%" y1="50%" y2="65.593%">
      <stop offset="0%" stop-color="#FAFAFA"/>
      <stop offset="100%" stop-color="#EEE"/>
    </linearGradient>
    <linearGradient id="icon6-k" x1="33.148%" x2="100%" y1="67.688%" y2="25.798%">
      <stop offset="0%" stop-color="#C5C5C5"/>
      <stop offset="100%" stop-color="#F7F7F7"/>
    </linearGradient>
    <filter id="icon6-l" width="151.2%" height="184%" x="-25.6%" y="-42%" filterUnits="objectBoundingBox">
      <feOffset dx="-2" dy="2" in="SourceAlpha" result="shadowOffsetOuter1"/>
      <feGaussianBlur in="shadowOffsetOuter1" result="shadowBlurOuter1" stdDeviation="1.5"/>
      <feColorMatrix in="shadowBlurOuter1" result="shadowMatrixOuter1" values="0 0 0 0 0.770465353   0 0 0 0 0.770465353   0 0 0 0 0.770465353  0 0 0 0.770705857 0"/>
      <feMerge>
        <feMergeNode in="shadowMatrixOuter1"/>
        <feMergeNode in="SourceGraphic"/>
      </feMerge>
    </filter>
    <linearGradient id="icon6-m" x1="-40.791%" x2="70.755%" y1="0%" y2="100%">
      <stop offset="0%" stop-color="#FF995B"/>
      <stop offset="100%" stop-color="#FC3336"/>
    </linearGradient>
    <path id="icon6-n" d="M5.15714959,16.4113801 C9.39455498,16.4113801 12.8296507,19.8464759 12.8296507,24.0838813 L12.8296507,24.891268 L5.623,24.8912536 L5.62381907,23.629181 C5.62381907,20.307677 3.51320723,17.4791329 0.559985348,16.4115503 L5.15714959,16.4113801 Z M5.12022343,4.9782536 C7.94804474,4.9782536 10.2404469,7.16279086 10.2404469,9.85755414 C10.2404469,12.5523174 7.94804474,14.7368547 5.12022343,14.7368547 C2.29240211,14.7368547 1.2703385e-09,12.5523174 1.2703385e-09,9.85755414 C1.2703385e-09,7.16279086 2.29240211,4.9782536 5.12022343,4.9782536 Z"/>
    <path id="icon6-o" d="M32.6492583,16.4113801 C36.8866637,16.4113801 40.3217595,19.8464759 40.3217595,24.0838813 L40.3217595,24.891268 L33.1151087,24.8912536 L33.1159278,23.629181 C33.1159278,20.307677 31.005316,17.4791329 28.0520941,16.4115503 L32.6492583,16.4113801 Z M32.6123322,4.9782536 C35.4401535,4.9782536 37.7325556,7.16279086 37.7325556,9.85755414 C37.7325556,12.5523174 35.4401535,14.7368547 32.6123322,14.7368547 C29.7845109,14.7368547 27.4921087,12.5523174 27.4921087,9.85755414 C27.4921087,7.16279086 29.7845109,4.9782536 32.6123322,4.9782536 Z"/>
    <linearGradient id="icon6-p" x1="-140.262%" x2="93.494%" y1="0%" y2="100%">
      <stop offset="0%" stop-color="#FF995B"/>
      <stop offset="100%" stop-color="#FC3336"/>
    </linearGradient>
    <path id="icon6-q" d="M23.3289077,15.5525576 C27.9900536,15.5525576 31.768659,19.3311629 31.768659,23.9923089 L31.768659,24.891268 L8.5531005,24.891268 L8.5531005,23.9923089 C8.5531005,19.3311629 12.3317059,15.5525576 16.9928518,15.5525576 L23.3289077,15.5525576 Z M20.0896921,0 C23.7784457,0 26.7687714,3.0072274 26.7687714,6.7168304 C26.7687714,10.4264334 23.7784457,13.4336608 20.0896921,13.4336608 C16.4009384,13.4336608 13.4106127,10.4264334 13.4106127,6.7168304 C13.4106127,3.0072274 16.4009384,0 20.0896921,0 Z"/>
    <linearGradient id="icon6-r" x1="35.838%" x2="64.782%" y1="0%" y2="100%">
      <stop offset="0%" stop-color="#FFA389"/>
      <stop offset="100%" stop-color="#D81616"/>
    </linearGradient>
    <linearGradient id="icon6-s" x1="29.245%" x2="64.782%" y1="-76.255%" y2="100%">
      <stop offset="0%" stop-color="#FFA389"/>
      <stop offset="100%" stop-color="#D81616"/>
    </linearGradient>
    <linearGradient id="icon6-t" x1="63.873%" x2="45.358%" y1="-12.924%" y2="100%">
      <stop offset="0%" stop-color="#FFA389"/>
      <stop offset="100%" stop-color="#D81616"/>
    </linearGradient>
  </defs>
  <g fill="none" fill-rule="evenodd">
    <rect width="100" height="100"/>
    <g transform="translate(10.73 10.73)">
      <g transform="translate(8.942 .745)">
        <mask id="icon6-d" fill="#fff">
          <use xlink:href="#icon6-a"/>
        </mask>
        <use fill="url(#icon6-b)" xlink:href="#icon6-a"/>
        <path fill="url(#icon6-c)" fill-rule="nonzero" d="M58.0857697,0.449135414 C59.3203854,0.449135414 60.3212392,1.44998918 60.3212392,2.68460486 L60.3212392,62.8891656 C60.3212392,64.1237813 59.3203854,65.1246351 58.0857697,65.1246351 L2.34696897,65.1246351 C1.11235328,65.1246351 0.111499518,64.1237813 0.111499518,62.8891656 L0.111499518,2.68460486 C0.111499518,1.44998918 1.11235328,0.449135414 2.34696897,0.449135414 L58.0857697,0.449135414 Z M58.0857697,1.34332319 L2.34696897,1.34332319 C1.64977423,1.34332319 1.07682112,1.87526485 1.01182731,2.55543049 L1.0056873,2.68460486 L1.0056873,62.8891656 C1.0056873,63.5863604 1.53762895,64.1593135 2.21779459,64.2243073 L2.34696897,64.2304473 L58.0857697,64.2304473 C58.7829644,64.2304473 59.3559176,63.6985056 59.4209114,63.01834 L59.4270514,62.8891656 L59.4270514,2.68460486 C59.4270514,1.98741012 58.8951097,1.41445701 58.2149441,1.3494632 L58.0857697,1.34332319 Z" mask="url(#icon6-d)"/>
        <rect width="47" height="32" x="6.54" y="29.55" fill="#E70000" filter="url(#icon6-e)" opacity=".719" rx="1.61"/>
      </g>
      <use fill="#000" filter="url(#icon6-f)" xlink:href="#icon6-g"/>
      <use fill="#FFF" xlink:href="#icon6-g"/>
      <use fill="#000" filter="url(#icon6-h)" xlink:href="#icon6-i"/>
      <use fill="#FFF" xlink:href="#icon6-i"/>
      <path fill="url(#icon6-j)" d="M0.745156483,31.9137147 C0.745156483,30.5440299 1.84027055,29.4336811 3.19116221,29.4336811 L24.1569256,29.4336811 C25.2020714,29.4336811 26.1317486,30.1069743 26.4707148,31.1093795 L28.0001001,35.6333195 L75.3483311,35.6337651 C76.6992227,35.6337651 77.7943368,36.744114 77.7943368,38.1137988 L77.7943368,75.3143032 C77.7943368,76.6839879 76.6992227,77.7943368 75.3483311,77.7943368 L3.19116221,77.7943368 C1.84027055,77.7943368 0.745156483,76.6839879 0.745156483,75.3143032 L0.745156483,31.9137147 Z"/>
      <path fill="url(#icon6-k)" fill-rule="nonzero" d="M24.1569256,29.023845 L3.19116221,29.023845 C1.61264722,29.023845 0.335320417,30.3189415 0.335320417,31.9137147 L0.335320417,75.3143032 C0.335320417,76.9090764 1.61264722,78.2041729 3.19116221,78.2041729 L75.3483311,78.2041729 C76.9268461,78.2041729 78.2041729,76.9090764 78.2041729,75.3143032 L78.2041729,38.1137988 L78.1993296,37.9441223 C78.1125511,36.4281706 76.8704705,35.2239291 75.3483311,35.2239291 L28.294,35.223 L26.8589648,30.9781258 C26.4639217,29.8098877 25.3785611,29.023845 24.1569256,29.023845 Z M3.19116221,29.8435171 L24.1569256,29.8435171 C25.0255817,29.8435171 25.7995754,30.4040609 26.0824751,31.2406638 L27.7060281,36.0431528 L75.3483272,36.0436012 C76.4715994,36.0436012 77.3845007,36.9692025 77.3845007,38.1137988 L77.3845007,75.3143032 C77.3845007,76.4588995 76.4715994,77.3845007 75.3483311,77.3845007 L3.19116221,77.3845007 C2.06789388,77.3845007 1.15499255,76.4588995 1.15499255,75.3143032 L1.15499255,31.9137147 C1.15499255,30.7691184 2.06789388,29.8435171 3.19116221,29.8435171 Z"/>
      <g filter="url(#icon6-l)" transform="translate(18.778 43.368)">
        <use fill="url(#icon6-m)" transform="matrix(-1 0 0 1 12.83 0)" xlink:href="#icon6-n"/>
        <use fill="url(#icon6-m)" xlink:href="#icon6-o"/>
        <use fill="url(#icon6-p)" xlink:href="#icon6-q"/>
        <path fill="url(#icon6-r)" fill-rule="nonzero" d="M5.15714959,16.4113801 C9.39455498,16.4113801 12.8296507,19.8464759 12.8296507,24.0838813 L12.8296507,24.891268 L5.623,24.891268 L5.62381907,23.629181 C5.62381907,20.307677 3.51320723,17.4791329 0.559985348,16.4115503 L5.15714959,16.4113801 Z M5.15716945,16.9478928 L2.722,16.948 L2.89593732,17.0744199 C4.83283824,18.5370561 6.06967452,20.8210375 6.15554935,23.3478072 L6.16033163,23.6295292 L6.159,24.354 L12.293,24.354 L12.2931381,24.0838813 C12.2931381,20.2232142 9.22732027,17.0786073 5.3974881,16.951864 L5.15716945,16.9478928 Z M5.12022343,4.9782536 C7.94804474,4.9782536 10.2404469,7.16279086 10.2404469,9.85755414 C10.2404469,12.4814026 8.06710995,14.6215257 5.34232809,14.7323467 L5.12022343,14.7368547 C2.29240211,14.7368547 1.27044686e-09,12.5523174 1.27044686e-09,9.85755414 C1.27044686e-09,7.23370568 2.17333691,5.09358258 4.89811876,4.9827616 L5.12022343,4.9782536 Z M5.12022343,5.51476626 C2.58308047,5.51476626 0.536512669,7.46503651 0.536512669,9.85755414 C0.536512669,12.2500718 2.58308047,14.200342 5.12022343,14.200342 C7.65736638,14.200342 9.70393419,12.2500718 9.70393419,9.85755414 C9.70393419,7.46503651 7.65736638,5.51476626 5.12022343,5.51476626 Z" transform="matrix(-1 0 0 1 12.83 0)"/>
        <path fill="url(#icon6-s)" fill-rule="nonzero" d="M32.6492583,16.4113801 C36.8866637,16.4113801 40.3217595,19.8464759 40.3217595,24.0838813 L40.3217595,24.891268 L33.1151087,24.891268 L33.1159278,23.629181 C33.1159278,20.307677 31.005316,17.4791329 28.0520941,16.4115503 L32.6492583,16.4113801 Z M32.6492782,16.9478928 L30.214,16.948 L30.3880461,17.0744199 C32.324947,18.5370561 33.5617833,20.8210375 33.6476581,23.3478072 L33.6524404,23.6295292 L33.651,24.354 L39.785,24.354 L39.7852468,24.0838813 C39.7852468,20.2232142 36.719429,17.0786073 32.8895968,16.951864 L32.6492782,16.9478928 Z M32.6123322,4.9782536 C35.4401535,4.9782536 37.7325556,7.16279086 37.7325556,9.85755414 C37.7325556,12.4814026 35.5592187,14.6215257 32.8344368,14.7323467 L32.6123322,14.7368547 C29.7845109,14.7368547 27.4921087,12.5523174 27.4921087,9.85755414 C27.4921087,7.23370568 29.6654457,5.09358258 32.3902275,4.9827616 L32.6123322,4.9782536 Z M32.6123322,5.51476626 C30.0751892,5.51476626 28.0286214,7.46503651 28.0286214,9.85755414 C28.0286214,12.2500718 30.0751892,14.200342 32.6123322,14.200342 C35.1494751,14.200342 37.1960429,12.2500718 37.1960429,9.85755414 C37.1960429,7.46503651 35.1494751,5.51476626 32.6123322,5.51476626 Z"/>
        <path fill="url(#icon6-t)" fill-rule="nonzero" d="M23.3289077,15.5525576 C27.9900536,15.5525576 31.768659,19.3311629 31.768659,23.9923089 L31.768659,24.891268 L8.5531005,24.891268 L8.5531005,23.9923089 C8.5531005,19.3311629 12.3317059,15.5525576 16.9928518,15.5525576 L23.3289077,15.5525576 Z M23.3289077,16.0890703 L16.9928518,16.0890703 C12.7103691,16.0890703 9.22343192,19.4952058 9.09337395,23.7461434 L9.08961317,23.9923089 L9.089,24.354 L31.2321463,24.354 L31.2321463,23.9923089 C31.2321463,19.7098261 27.8260108,16.222889 23.5750732,16.092831 L23.3289077,16.0890703 Z M20.0896921,-3.37507799e-14 C23.7784457,-3.37507799e-14 26.7687714,3.0072274 26.7687714,6.7168304 C26.7687714,10.3475057 23.9043399,13.3053757 20.3241738,13.4295989 L20.0896921,13.4336608 C16.4009384,13.4336608 13.4106127,10.4264334 13.4106127,6.7168304 C13.4106127,3.08615512 16.2750442,0.128285084 19.8552103,0.00406185731 L20.0896921,-3.37507799e-14 Z M20.0896921,0.536512668 C16.6979252,0.536512668 13.9471254,3.30286036 13.9471254,6.7168304 C13.9471254,10.1308004 16.6979252,12.8971481 20.0896921,12.8971481 C23.4814589,12.8971481 26.2322587,10.1308004 26.2322587,6.7168304 C26.2322587,3.30286036 23.4814589,0.536512668 20.0896921,0.536512668 Z"/>
      </g>
    </g>
  </g>
</svg>
