<svg xmlns="http://www.w3.org/2000/svg" xmlns:xlink="http://www.w3.org/1999/xlink" viewBox="0 0 100 100">
  <defs>
    <linearGradient id="icon5-b" x1="52.468%" x2="16.532%" y1="50%" y2="89.579%">
      <stop offset="0%" stop-color="#FAFAFA"/>
      <stop offset="100%" stop-color="#EEE"/>
    </linearGradient>
    <path id="icon5-a" d="M2.68256334,0.596125186 L55.5886736,0.596125186 C56.8232893,0.596125186 57.8241431,1.59697895 57.8241431,2.83159463 L57.8241431,60.6557377 C57.8241431,61.8903534 56.8232893,62.8912072 55.5886736,62.8912072 L2.68256334,62.8912072 C1.44794765,62.8912072 0.44709389,61.8903534 0.44709389,60.6557377 L0.44709389,2.83159463 C0.44709389,1.59697895 1.44794765,0.596125186 2.68256334,0.596125186 Z"/>
    <linearGradient id="icon5-c" x1="35.672%" x2="92.511%" y1="94.342%" y2="-10.674%">
      <stop offset="0%" stop-color="#C5C5C5"/>
      <stop offset="100%" stop-color="#F7F7F7"/>
    </linearGradient>
    <linearGradient id="icon5-e" x1="68.012%" x2="68.012%" y1="9.506%" y2="127.465%">
      <stop offset="0%" stop-color="#FF995B"/>
      <stop offset="100%" stop-color="#FC3336"/>
    </linearGradient>
    <linearGradient id="icon5-f" x1="12.978%" x2="76.367%" y1="-76.255%" y2="100%">
      <stop offset="0%" stop-color="#FFA389"/>
      <stop offset="100%" stop-color="#D81616"/>
    </linearGradient>
    <linearGradient id="icon5-g" x1="16.671%" x2="80.832%" y1="52.836%" y2="47.584%">
      <stop offset="0%" stop-color="#F8F8F8"/>
      <stop offset="100%" stop-color="#EEE"/>
    </linearGradient>
    <linearGradient id="icon5-h" x1="108.752%" x2="-33.826%" y1="55.673%" y2="50%">
      <stop offset="0%" stop-color="#C5C5C5"/>
      <stop offset="100%" stop-color="#F7F7F7"/>
    </linearGradient>
    <linearGradient id="icon5-i" x1="55.654%" x2="67.021%" y1="7.744%" y2="100%">
      <stop offset="0%" stop-color="#FF995B"/>
      <stop offset="100%" stop-color="#FC3336"/>
    </linearGradient>
    <linearGradient id="icon5-j" x1="134.229%" x2="-52.184%" y1="51.971%" y2="48.006%">
      <stop offset="0%" stop-color="#C5C5C5"/>
      <stop offset="100%" stop-color="#F7F7F7"/>
    </linearGradient>
  </defs>
  <g fill="none" fill-rule="evenodd">
    <rect width="100" height="100"/>
    <g transform="translate(6.365 10.613)">
      <g transform="translate(17.586 .224)">
        <g transform="translate(.373 .224)">
          <mask id="icon5-d" fill="#fff">
            <use xlink:href="#icon5-a"/>
          </mask>
          <use fill="url(#icon5-b)" xlink:href="#icon5-a"/>
          <path fill="url(#icon5-c)" fill-rule="nonzero" d="M55.5886736,0.186289121 L2.68256334,0.186289121 C1.22160144,0.186289121 0.0372578241,1.37063274 0.0372578241,2.83159463 L0.0372578241,60.6557377 C0.0372578241,62.1166996 1.22160144,63.3010432 2.68256334,63.3010432 L55.5886736,63.3010432 C57.0496355,63.3010432 58.2339791,62.1166996 58.2339791,60.6557377 L58.2339791,2.83159463 C58.2339791,1.37063274 57.0496355,0.186289121 55.5886736,0.186289121 Z M2.68256334,1.00596125 L55.5886736,1.00596125 C56.5969431,1.00596125 57.414307,1.82332516 57.414307,2.83159463 L57.414307,60.6557377 C57.414307,61.6640072 56.5969431,62.4813711 55.5886736,62.4813711 L2.68256334,62.4813711 C1.67429386,62.4813711 0.856929955,61.6640072 0.856929955,60.6557377 L0.856929955,2.83159463 C0.856929955,1.82332516 1.67429386,1.00596125 2.68256334,1.00596125 Z" mask="url(#icon5-d)"/>
        </g>
        <g transform="translate(11.475 14.754)">
          <rect width="32.459" height="31.721" x="1.803" y="1.762" stroke="#FC3838" stroke-width=".894"/>
          <ellipse cx="1.803" cy="1.762" fill="#FC3E3A" rx="1.803" ry="1.762"/>
          <ellipse cx="1.803" cy="33.484" fill="#FC3E3A" rx="1.803" ry="1.762"/>
          <ellipse cx="34.262" cy="1.762" fill="#FC3E3A" rx="1.803" ry="1.762"/>
          <ellipse cx="34.262" cy="33.484" fill="#FC3E3A" rx="1.803" ry="1.762"/>
        </g>
        <path fill="#FD3F3B" d="M37.295082,22.9508197 C37.9741206,22.9508197 38.5245902,23.5012892 38.5245902,24.1803279 C38.5245902,24.8593665 37.9741206,25.4098361 37.295082,25.4098361 L30.3271311,25.4098197 L30.3278689,40.5737705 C30.3278689,41.2528091 29.7773993,41.8032787 29.0983607,41.8032787 C28.419322,41.8032787 27.8688525,41.2528091 27.8688525,40.5737705 L27.8681311,25.4098197 L20.9016393,25.4098361 C20.2226007,25.4098361 19.6721311,24.8593665 19.6721311,24.1803279 C19.6721311,23.5012892 20.2226007,22.9508197 20.9016393,22.9508197 L37.295082,22.9508197 Z"/>
      </g>
      <g transform="rotate(90 8.271 28.987)">
        <path fill="url(#icon5-e)" d="M27.8688525,15.630418 C27.8688525,14.1970609 26.6914241,13.0367242 25.2369538,13.0367242 C24.3019372,13.0367242 23.4708113,13.5145099 22.9859879,14.265316 L22.9859879,14.1970609 C22.9859879,12.7637038 21.8085595,11.5692395 20.319459,11.5692395 C19.3844424,11.5692395 18.5533165,12.0470252 18.0684931,12.7978313 L18.0684931,12.7295762 C18.0684931,11.2962191 16.8910647,10.1017549 15.4019642,10.1017549 C14.4669475,10.1017549 13.6358217,10.5795406 13.1509982,11.3303467 L13.1509982,2.59369382 C13.1509982,1.91114281 12.8739563,1.22859181 12.3891328,0.750806105 C11.9043094,0.273020402 11.2117045,0 10.5190996,0 C9.06462929,0 7.88720095,1.16033671 7.88720095,2.62782137 L7.88720095,19.725724 C7.88720095,19.8622342 7.81794046,19.9987444 7.64478923,20.0669995 C7.50626825,20.1352546 7.36774727,20.1011271 7.22922629,19.9987444 L4.56269741,17.302668 C3.66231103,16.4153517 2.24247097,16.2788415 1.16893337,16.99552 C0.545588957,17.4050506 0.130026014,18.0876016 0.026135278,18.8042802 C-0.0777554577,19.5550863 0.130026014,20.3058924 0.614849447,20.8860607 L7.29848678,28.83778 C9.20315027,31.0901983 11.9735699,32.3870452 14.951771,32.3870452 L19.1074004,32.3870452 C21.4276268,32.3870452 23.6439625,31.4997289 25.2715841,29.8616065 C26.9338358,28.2234841 27.8342222,26.0734484 27.8342222,23.7869025 L27.8688525,15.630418 Z"/>
        <path fill="url(#icon5-f)" fill-rule="nonzero" d="M10.5190996,1.52766688e-13 C11.2117045,1.52766688e-13 11.9043094,0.273020402 12.3891328,0.750806105 C12.8254739,1.18081324 13.093512,1.77668027 13.1427562,2.38913328 L13.1509982,2.59369382 L13.1509982,11.3303467 C13.6358217,10.5795406 14.4669475,10.1017549 15.4019642,10.1017549 C16.8337916,10.1017549 17.9774606,11.2061042 18.063317,12.5653034 L18.0684931,12.7295762 L18.0684931,12.7978313 C18.5533165,12.0470252 19.3844424,11.5692395 20.319459,11.5692395 C21.7512864,11.5692395 22.8949554,12.6735889 22.9808119,14.0327881 L22.9859879,14.1970609 L22.9859879,14.265316 C23.4708113,13.5145099 24.3019372,13.0367242 25.2369538,13.0367242 C26.635483,13.0367242 27.7778712,14.1095207 27.8636784,15.4662928 L27.8688525,15.630418 L27.8342222,23.7869025 C27.8342222,26.0734484 26.9338358,28.2234841 25.2715841,29.8616065 C23.7179453,31.4252688 21.6278956,32.3048288 19.4231054,32.3815581 L19.1074004,32.3870452 L14.951771,32.3870452 C12.0799342,32.3870452 9.40130241,31.1811761 7.50584074,29.0754384 L7.29848678,28.83778 L0.614849447,20.8860607 C0.130026014,20.3058924 -0.0777554577,19.5550863 0.026135278,18.8042802 C0.130026014,18.0876016 0.545588957,17.4050506 1.16893337,16.99552 C2.18879409,16.3146754 3.52119278,16.4038336 4.42385177,17.1752144 L4.56269741,17.302668 L7.22922629,19.9987444 C7.36774727,20.1011271 7.50626825,20.1352546 7.64478923,20.0669995 C7.78908192,20.0101203 7.86122827,19.9058417 7.88126892,19.7936631 L7.88720095,19.725724 L7.88720095,2.62782137 C7.88720095,1.16033671 9.06462929,1.52766688e-13 10.5190996,1.52766688e-13 Z M10.5190996,0.536512668 C9.4055806,0.536512668 8.50513232,1.38381222 8.42893742,2.4772474 L8.42371362,2.62782137 L8.42371362,19.725724 C8.42371362,20.0937143 8.21038874,20.420736 7.88192652,20.5482601 C7.58677838,20.693692 7.2817002,20.659539 6.96646133,20.4589971 L6.84777002,20.3760201 L4.18610935,17.6848031 C3.46421164,16.9733845 2.32558143,16.8684398 1.46352617,17.4439182 C0.979435923,17.7619603 0.640896787,18.303174 0.557584274,18.877818 C0.482125392,19.4231504 0.610781098,19.962059 0.916956379,20.3990829 L1.02555312,20.5408531 L7.70816339,28.491354 C9.447568,30.5483404 11.9404675,31.7553331 14.6283277,31.8451358 L14.951771,31.8505325 L19.1074004,31.8505325 C21.3048752,31.8505325 23.3778457,31.0063676 24.894996,29.4794713 C26.3769541,28.0190254 27.2154669,26.1256024 27.291969,24.0908595 L27.2977144,23.7846247 L27.3323398,15.630418 C27.3323398,14.4951389 26.3968582,13.5732369 25.2369538,13.5732369 C24.5580291,13.5732369 23.9356521,13.8888973 23.5327565,14.4193324 L23.4366994,14.5563572 L22.4494752,16.0851899 L22.4494752,14.1970609 C22.4494752,13.0488557 21.5010245,12.1057522 20.319459,12.1057522 C19.6405342,12.1057522 19.0181572,12.4214127 18.6152616,12.9518477 L18.5192046,13.0888725 L17.5319804,14.6177053 L17.5319804,12.7295762 C17.5319804,11.581371 16.5835297,10.6382675 15.4019642,10.6382675 C14.7230394,10.6382675 14.1006624,10.953928 13.6977668,11.484363 L13.6017097,11.6213879 L12.6144856,13.1502206 L12.6144856,2.59369382 C12.6144856,2.04908674 12.3910541,1.50595616 12.0125448,1.13294126 C11.6325054,0.758418562 11.0770749,0.536512668 10.5190996,0.536512668 Z"/>
        <rect width="21.576" height="6.297" x="6.293" y="30.588" fill="url(#icon5-g)"/>
        <path fill="url(#icon5-h)" fill-rule="nonzero" d="M27.8688525,30.5877649 L27.8688525,36.8852459 L6.29296668,36.8852459 L6.29296668,30.5877649 L27.8688525,30.5877649 Z M27.332,31.124 L6.829,31.124 L6.829,36.348 L27.332,36.348 L27.332,31.124 Z"/>
      </g>
      <g transform="scale(-1 1) rotate(30 -104.45 -112.831)">
        <path fill="url(#icon5-i)" d="M27.8688525,15.630418 C27.8688525,14.1970609 26.6914241,13.0367242 25.2369538,13.0367242 C24.3019372,13.0367242 23.4708113,13.5145099 22.9859879,14.265316 L22.9859879,14.1970609 C22.9859879,12.7637038 21.8085595,11.5692395 20.319459,11.5692395 C19.3844424,11.5692395 18.5533165,12.0470252 18.0684931,12.7978313 L18.0684931,12.7295762 C18.0684931,11.2962191 16.8910647,10.1017549 15.4019642,10.1017549 C14.4669475,10.1017549 13.6358217,10.5795406 13.1509982,11.3303467 L13.1509982,2.59369382 C13.1509982,1.91114281 12.8739563,1.22859181 12.3891328,0.750806105 C11.9043094,0.273020402 11.2117045,0 10.5190996,0 C9.06462929,0 7.88720095,1.16033671 7.88720095,2.62782137 L7.88720095,19.725724 C7.88720095,19.8622342 7.81794046,19.9987444 7.64478923,20.0669995 C7.50626825,20.1352546 7.36774727,20.1011271 7.22922629,19.9987444 L4.56269741,17.302668 C3.66231103,16.4153517 2.24247097,16.2788415 1.16893337,16.99552 C0.545588957,17.4050506 0.130026014,18.0876016 0.026135278,18.8042802 C-0.0777554577,19.5550863 0.130026014,20.3058924 0.614849447,20.8860607 L7.29848678,28.83778 C9.20315027,31.0901983 11.9735699,32.3870452 14.951771,32.3870452 L19.1074004,32.3870452 C21.4276268,32.3870452 23.6439625,31.4997289 25.2715841,29.8616065 C26.9338358,28.2234841 27.8342222,26.0734484 27.8342222,23.7869025 L27.8688525,15.630418 Z"/>
        <path fill="url(#icon5-f)" fill-rule="nonzero" d="M10.5190996,8.34887715e-13 C11.2117045,8.34887715e-13 11.9043094,0.273020402 12.3891328,0.750806105 C12.8254739,1.18081324 13.093512,1.77668027 13.1427562,2.38913328 L13.1509982,2.59369382 L13.1509982,11.3303467 C13.6358217,10.5795406 14.4669475,10.1017549 15.4019642,10.1017549 C16.8337916,10.1017549 17.9774606,11.2061042 18.063317,12.5653034 L18.0684931,12.7295762 L18.0684931,12.7978313 C18.5533165,12.0470252 19.3844424,11.5692395 20.319459,11.5692395 C21.7512864,11.5692395 22.8949554,12.6735889 22.9808119,14.0327881 L22.9859879,14.1970609 L22.9859879,14.265316 C23.4708113,13.5145099 24.3019372,13.0367242 25.2369538,13.0367242 C26.635483,13.0367242 27.7778712,14.1095207 27.8636784,15.4662928 L27.8688525,15.630418 L27.8342222,23.7869025 C27.8342222,26.0734484 26.9338358,28.2234841 25.2715841,29.8616065 C23.7179453,31.4252688 21.6278956,32.3048288 19.4231054,32.3815581 L19.1074004,32.3870452 L14.951771,32.3870452 C12.0799342,32.3870452 9.40130241,31.1811761 7.50584074,29.0754384 L7.29848678,28.83778 L0.614849447,20.8860607 C0.130026014,20.3058924 -0.0777554577,19.5550863 0.026135278,18.8042802 C0.130026014,18.0876016 0.545588957,17.4050506 1.16893337,16.99552 C2.18879409,16.3146754 3.52119278,16.4038336 4.42385177,17.1752144 L4.56269741,17.302668 L7.22922629,19.9987444 C7.36774727,20.1011271 7.50626825,20.1352546 7.64478923,20.0669995 C7.78908192,20.0101203 7.86122827,19.9058417 7.88126892,19.7936631 L7.88720095,19.725724 L7.88720095,2.62782137 C7.88720095,1.16033671 9.06462929,8.34887715e-13 10.5190996,8.34887715e-13 Z M10.5190996,0.536512668 C9.4055806,0.536512668 8.50513232,1.38381222 8.42893742,2.4772474 L8.42371362,2.62782137 L8.42371362,19.725724 C8.42371362,20.0937143 8.21038874,20.420736 7.88192652,20.5482601 C7.58677838,20.693692 7.2817002,20.659539 6.96646133,20.4589971 L6.84777002,20.3760201 L4.18610935,17.6848031 C3.46421164,16.9733845 2.32558143,16.8684398 1.46352617,17.4439182 C0.979435923,17.7619603 0.640896787,18.303174 0.557584274,18.877818 C0.482125392,19.4231504 0.610781098,19.962059 0.916956379,20.3990829 L1.02555312,20.5408531 L7.70816339,28.491354 C9.447568,30.5483404 11.9404675,31.7553331 14.6283277,31.8451358 L14.951771,31.8505325 L19.1074004,31.8505325 C21.3048752,31.8505325 23.3778457,31.0063676 24.894996,29.4794713 C26.3769541,28.0190254 27.2154669,26.1256024 27.291969,24.0908595 L27.2977144,23.7846247 L27.3323398,15.630418 C27.3323398,14.4951389 26.3968582,13.5732369 25.2369538,13.5732369 C24.5580291,13.5732369 23.9356521,13.8888973 23.5327565,14.4193324 L23.4366994,14.5563572 L22.4494752,16.0851899 L22.4494752,14.1970609 C22.4494752,13.0488557 21.5010245,12.1057522 20.319459,12.1057522 C19.6405342,12.1057522 19.0181572,12.4214127 18.6152616,12.9518477 L18.5192046,13.0888725 L17.5319804,14.6177053 L17.5319804,12.7295762 C17.5319804,11.581371 16.5835297,10.6382675 15.4019642,10.6382675 C14.7230394,10.6382675 14.1006624,10.953928 13.6977668,11.484363 L13.6017097,11.6213879 L12.6144856,13.1502206 L12.6144856,2.59369382 C12.6144856,2.04908674 12.3910541,1.50595616 12.0125448,1.13294126 C11.6325054,0.758418562 11.0770749,0.536512668 10.5190996,0.536512668 Z"/>
        <rect width="21.576" height="6.297" x="6.293" y="30.588" fill="url(#icon5-g)"/>
        <path fill="url(#icon5-j)" fill-rule="nonzero" d="M27.8688525,30.5877649 L27.8688525,36.8852459 L6.29296668,36.8852459 L6.29296668,30.5877649 L27.8688525,30.5877649 Z M27.332,31.124 L6.829,31.124 L6.829,36.348 L27.332,36.348 L27.332,31.124 Z"/>
      </g>
    </g>
  </g>
</svg>
