<svg xmlns="http://www.w3.org/2000/svg" viewBox="0 0 72 72">
  <defs>
    <linearGradient id="pdf-logo-a" x1="0%" x2="100%" y1="0%" y2="100%">
      <stop offset="0%" stop-color="#F26B69"/>
      <stop offset="100%" stop-color="#E54B47"/>
    </linearGradient>
  </defs>
  <g fill="none" fill-rule="evenodd">
    <path fill="url(#pdf-logo-a)" d="M10.2555408,-4.14336123e-16 L61.7444592,4.14336123e-16 C65.3105342,-2.4074122e-16 66.6036791,0.371302445 67.9073828,1.06853082 C69.2110865,1.76575919 70.2342408,2.78891348 70.9314692,4.09261719 C71.6286976,5.39632089 72,6.68946584 72,10.2555408 L72,61.7444592 C72,65.3105342 71.6286976,66.6036791 70.9314692,67.9073828 C70.2342408,69.2110865 69.2110865,70.2342408 67.9073828,70.9314692 C66.6036791,71.6286976 65.3105342,72 61.7444592,72 L10.2555408,72 C6.68946584,72 5.39632089,71.6286976 4.09261719,70.9314692 C2.78891348,70.2342408 1.76575919,69.2110865 1.06853082,67.9073828 C0.371302445,66.6036791 1.60494146e-16,65.3105342 -2.76224082e-16,61.7444592 L2.76224082e-16,10.2555408 C-1.60494146e-16,6.68946584 0.371302445,5.39632089 1.06853082,4.09261719 C1.76575919,2.78891348 2.78891348,1.76575919 4.09261719,1.06853082 C5.39632089,0.371302445 6.68946584,2.4074122e-16 10.2555408,-4.14336123e-16 Z"/>
    <path fill="#FFF" fill-rule="nonzero" d="M35.2359659,32.0382979 C35.2359659,33.4671878 34.0997904,34.6255319 32.6982468,34.6255319 C31.2967032,34.6255319 30.1605276,33.4671878 30.1605276,32.0382979 L30.1605276,19.587234 C30.1605276,18.1583441 31.2967032,17 32.6982468,17 L40.4700117,17 C44.3384734,17 47.594368,18.4522472 49.8609285,21.0518799 C51.9066938,23.3982715 53,26.5331918 53,29.7744681 C53,33.0157444 51.9066938,36.1506646 49.8609285,38.4970562 C47.594368,41.0966889 44.3384734,42.5489362 40.4700117,42.5489362 L27.7828874,42.5489362 C26.5166938,42.5489362 25.5998342,42.948801 24.9767713,43.6475428 C24.402347,44.2917382 24.0754383,45.2082781 24.0754383,46.187234 C24.0754383,47.16619 24.402347,48.0827299 24.9767713,48.7269253 C25.5998342,49.4256671 26.5166938,49.8255319 27.7828874,49.8255319 L30.1605276,49.8255319 L30.1605276,47.8851064 C30.1605276,46.4562165 31.2967032,45.2978723 32.6982468,45.2978723 C34.0997904,45.2978723 35.2359659,46.4562165 35.2359659,47.8851064 L35.2359659,52.412766 C35.2359659,53.8416559 34.0997904,55 32.6982468,55 L27.7828874,55 C25.1086772,55 22.8218466,54.0026574 21.2212511,52.2076492 C19.7717783,50.5821194 19,48.418318 19,46.187234 C19,43.9561501 19.7717783,41.7923487 21.2212511,40.1668189 C22.8218466,38.3718107 25.1086772,37.3744681 27.7828874,37.3744681 L40.4700117,37.3744681 C42.906196,37.3744681 44.7762057,36.5403759 46.0674986,35.0593267 C47.2599687,33.6916226 47.9245617,31.7859843 47.9245617,29.7744681 C47.9245617,27.7629518 47.2599687,25.8573136 46.0674986,24.4896094 C44.7762057,23.0085603 42.906196,22.1744681 40.4700117,22.1744681 L35.2359659,22.1744681 L35.2359659,32.0382979 Z"/>
  </g>
</svg>
