<?xml version="1.0" encoding="UTF-8"?>
<svg width="109px" height="26px" viewBox="0 0 109 26" version="1.1" xmlns="http://www.w3.org/2000/svg" xmlns:xlink="http://www.w3.org/1999/xlink">
    <!-- Generator: Sketch 53.2 (72643) - https://sketchapp.com -->
    <title>logo-描边</title>
    <desc>Created with Sketch.</desc>
    <g id="logo-描边" stroke="none" stroke-width="1" fill="none" fill-rule="evenodd">
        <g id="Group-15" transform="translate(0.000000, -1.000000)" fill="#8B8E94" fill-rule="nonzero">
            <g id="Group-3" transform="translate(0.682927, 0.313464)">
                <g id="logo_描边">
                    <path d="M77.3170732,13.6865364 C77.3170732,19.7615054 82.2421042,24.6865364 88.3170732,24.6865364 C94.3920422,24.6865364 99.3170732,19.7615054 99.3170732,13.6865364 C99.3170732,7.61156737 94.3920422,2.68653636 88.3170732,2.68653636 C82.2421042,2.68653636 77.3170732,7.61156737 77.3170732,13.6865364 Z M75.3170732,13.6865364 C75.3170732,6.50699787 81.1375347,0.686536364 88.3170732,0.686536364 C95.4966117,0.686536364 101.317073,6.50699787 101.317073,13.6865364 C101.317073,20.8660749 95.4966117,26.6865364 88.3170732,26.6865364 C81.1375347,26.6865364 75.3170732,20.8660749 75.3170732,13.6865364 Z M106.817642,24.6865364 C105.989428,24.6865364 105.317073,24.0150644 105.317073,23.1865364 C105.317073,22.3580083 105.989428,21.6865364 106.817642,21.6865364 C107.645856,21.6865364 108.317073,22.3580083 108.317073,23.1865364 C108.317073,24.0150644 107.645856,24.6865364 106.817642,24.6865364 Z M96.3055441,10.5500097 C96.3032383,10.5717683 96.3009325,10.5935269 96.295168,10.6164307 C96.2894035,10.6416249 96.2813332,10.6656739 96.2721099,10.6908681 C96.2640396,10.7137719 96.2559693,10.7366757 96.2455931,10.7584343 C96.2421344,10.7664506 96.2398286,10.7744669 96.2363699,10.7836285 L91.4691124,20.2131236 C91.4022439,20.3791762 91.2800361,20.5223249 91.1071006,20.6082142 C91.0771251,20.6231016 91.0459966,20.6322632 91.0160211,20.6437151 C91.0067979,20.6471506 90.9987276,20.6505862 90.9906573,20.6528766 C90.958376,20.6631833 90.9260946,20.6689092 90.8926604,20.6757804 C90.874214,20.679216 90.8557675,20.6826515 90.837321,20.6849419 C90.814263,20.6860871 90.790052,20.6860871 90.7669939,20.6860871 C90.7370184,20.6872323 90.7093487,20.6860871 90.6805261,20.6837967 C90.6666913,20.6826515 90.6540093,20.6803611 90.6401745,20.6780708 C90.6021287,20.6723448 90.5652357,20.6631833 90.5271899,20.6517314 C90.5248841,20.6505862 90.5225783,20.649441 90.5191196,20.6482958 C90.4845325,20.6379891 90.4499453,20.6265372 90.4165111,20.6093594 C90.2412697,20.5223249 90.1167561,20.3768858 90.0510406,20.209688 L88.5338191,17.2069996 L89.3846622,15.5155539 L90.6205751,17.9616799 C90.6205751,17.9616799 90.7612294,18.2399611 90.9018837,17.9616799 C91.0425379,17.6833987 94.1795894,11.4776137 94.1795894,11.4776137 C94.1795894,11.4776137 94.3179378,11.1993325 94.0078067,11.1993325 L91.4506659,11.1993325 C91.1462993,11.1993325 90.9964218,11.4776137 90.9964218,11.4776137 L89.7386037,13.9661117 L89.7362978,13.9626761 L88.3205319,16.7844245 L88.3170732,16.7775534 L86.5807999,20.2131236 C86.5139315,20.3791762 86.3905708,20.5223249 86.2187881,20.6082142 C86.1899655,20.6231016 86.1588371,20.6322632 86.1300145,20.6425699 C86.1207913,20.6460054 86.1115681,20.6505862 86.1023448,20.6528766 C86.0700635,20.6631833 86.0377822,20.6689092 86.0055009,20.6746352 C85.9870544,20.6780708 85.968608,20.6826515 85.9490086,20.6849419 C85.9259505,20.6860871 85.9017395,20.6860871 85.8786815,20.6860871 C85.8498589,20.6872323 85.8221892,20.6860871 85.7922137,20.6837967 C85.7783788,20.6826515 85.764544,20.6803611 85.751862,20.6769256 C85.7138162,20.6711996 85.6769233,20.6631833 85.6400304,20.6517314 C85.6365717,20.6505862 85.6331129,20.649441 85.6296542,20.6482958 C85.5950671,20.6368439 85.5616329,20.6265372 85.5270458,20.6093594 C85.3541102,20.5223249 85.2319024,20.378031 85.165034,20.2131236 L80.3977764,10.7824833 C80.3943177,10.7744669 80.3931648,10.7675958 80.3897061,10.7607247 C80.3781771,10.7366757 80.3701067,10.7126267 80.3608835,10.6862873 C80.3539661,10.6633835 80.3447429,10.6404797 80.3389783,10.6164307 C80.3332138,10.5935269 80.3320609,10.5717683 80.3286022,10.5488645 C80.3239906,10.5213799 80.3205319,10.4938954 80.319379,10.4652656 C80.319379,10.4572493 80.3170732,10.4515233 80.3170732,10.4423618 C80.3170732,10.4286195 80.3216848,10.4137321 80.3216848,10.3988446 C80.3228377,10.3725052 80.3251435,10.3450207 80.3297551,10.3186813 C80.3332138,10.2946323 80.3401312,10.2705833 80.3458958,10.2476795 C80.3528132,10.2236305 80.3597306,10.2018719 80.3678009,10.1789681 C80.3770242,10.1549191 80.3862474,10.1320153 80.3977764,10.1091115 C80.4093055,10.0896433 80.4196816,10.0678847 80.4312107,10.0484164 C80.4461984,10.0266578 80.4600333,10.0071896 80.475021,9.98657617 C80.4888558,9.96825312 80.5049965,9.94993008 80.5199843,9.93160704 C80.5384307,9.913284 80.5568772,9.89496096 80.5764765,9.87778311 C80.5937701,9.86404083 80.6110637,9.84915336 80.6283572,9.83426588 C80.6525682,9.81823322 80.6779321,9.80220056 80.7044489,9.78845828 C80.7159779,9.78158714 80.7252011,9.77357081 80.7367302,9.76784486 C80.7436476,9.76440929 80.7494121,9.7632641 80.7563295,9.76097372 C80.7839992,9.74723144 80.8128218,9.73806992 80.8416444,9.72776321 C80.8612438,9.72089207 80.8819961,9.71402093 80.9004425,9.71058536 C80.9269593,9.70256902 80.9534761,9.70027864 80.9799929,9.69684307 C81.0042039,9.6934075 81.0284149,9.68997193 81.0537787,9.68997193 C81.0618491,9.68882674 81.0699194,9.68653636 81.0779897,9.68653636 L85.9651493,9.68653636 C85.9812899,9.68653636 85.9974306,9.69111712 86.0124183,9.69111712 C86.040088,9.6934075 86.0666048,9.69455269 86.0931216,9.69913345 C86.1150268,9.70256902 86.1369319,9.70829498 86.1576842,9.71402093 C86.1853539,9.72089207 86.2130236,9.73005359 86.2383875,9.73921511 C86.255681,9.74608625 86.2741275,9.75410258 86.2914211,9.7632641 C86.3202437,9.77586119 86.3479133,9.78960347 86.3732772,9.80678132 C86.3859592,9.81479765 86.3986411,9.82281398 86.4101702,9.8319755 C86.4389928,9.85258893 86.4655095,9.87434754 86.4920263,9.89954172 C86.5012496,9.90641286 86.5093199,9.91671957 86.5173902,9.92588109 C86.5427541,9.95107527 86.5669651,9.97970502 86.5877174,10.00948 C86.5957877,10.0197867 86.6015522,10.0312386 86.6096225,10.0438357 C86.6223045,10.0633039 86.6361393,10.0816269 86.6476684,10.1033856 L88.102633,12.980103 L87.2494842,14.666968 L85.6377246,11.4776137 C85.6377246,11.4776137 85.4959174,11.1993325 85.1834804,11.1993325 L82.6274925,11.1993325 C82.3208201,11.1993325 82.454557,11.4776137 82.454557,11.4776137 L85.7322627,17.9628251 C85.7322627,17.9628251 85.872917,18.2411063 86.0135712,17.9628251 C86.1542255,17.6845439 87.3371049,15.3437754 87.3371049,15.3437754 L88.7344244,12.5804317 L89.986478,10.1033856 L89.986478,10.1045307 C89.9957012,10.0839173 90.0118419,10.0667395 90.0233709,10.0472712 C90.0314412,10.033529 90.0395116,10.0197867 90.0487348,10.0071896 C90.0683342,9.97970502 90.0890864,9.95451084 90.1121445,9.93046185 C90.1236735,9.91900995 90.1328968,9.90641286 90.1455787,9.89610615 C90.1686368,9.87434754 90.1928478,9.85487931 90.2182117,9.83655626 C90.2331994,9.82510436 90.2493401,9.81479765 90.2654807,9.80449094 C90.2885388,9.78960347 90.3127498,9.77700638 90.3369608,9.76440929 C90.357713,9.75524777 90.3784653,9.74608625 90.3992176,9.73806992 C90.4234286,9.73005359 90.4464866,9.72203726 90.4706976,9.71516612 C90.4949086,9.70829498 90.5179667,9.70256902 90.5433306,9.69913345 C90.5686944,9.69455269 90.5917525,9.6934075 90.6171164,9.69111712 C90.6355629,9.69111712 90.6505506,9.68653636 90.6689971,9.68653636 L95.5561566,9.68653636 C95.5642269,9.68653636 95.5734502,9.68882674 95.5826734,9.68997193 C95.6057315,9.68997193 95.6287896,9.6934075 95.6506947,9.69569788 C95.6806702,9.70027864 95.707187,9.70256902 95.7348567,9.71058536 C95.7521503,9.71402093 95.7705967,9.72089207 95.7878903,9.72661802 C95.8201716,9.73577954 95.8513,9.74723144 95.8801226,9.76211891 C95.8858871,9.7632641 95.8904987,9.76440929 95.8962633,9.76784486 C95.9066394,9.77357081 95.9147097,9.78044195 95.9239329,9.7861679 C95.9539084,9.80105537 95.9815781,9.81823322 96.0080949,9.83770145 C96.0242356,9.84915336 96.0392233,9.86175045 96.0530582,9.87434754 C96.0749634,9.89381577 96.0968685,9.913284 96.115315,9.93504261 C96.1303027,9.94993008 96.1429847,9.96710793 96.1556666,9.9819954 C96.1729602,10.0048992 96.1891008,10.0266578 96.2040886,10.051852 C96.2144647,10.0690299 96.223688,10.0873529 96.2329112,10.1056759 C96.2455931,10.1297249 96.2571222,10.1560643 96.2674983,10.1824037 C96.2744157,10.2030171 96.2813332,10.2236305 96.2870977,10.2430987 C96.2940151,10.2682929 96.3009325,10.2946323 96.3055441,10.3198265 C96.3090028,10.3461659 96.3101557,10.3725052 96.3124616,10.3976994 C96.3136145,10.4125869 96.3170732,10.4274743 96.3170732,10.4423618 C96.3170732,10.4515233 96.3147674,10.4583945 96.3147674,10.4664108 C96.3136145,10.4938954 96.3101557,10.5213799 96.3055441,10.5500097 Z M65.8322582,12.4932127 C68.8626281,12.4932127 71.3170732,15.0007695 71.3170732,18.0918459 C71.3170732,21.1776653 68.8639165,23.6825937 65.8322582,23.6865364 L52.1814207,23.6865364 C51.535921,23.6865364 51.0128214,23.1555862 51.0128214,22.4971554 C51.0128214,21.8400388 51.535921,21.3077744 52.1814207,21.3077744 L65.8322582,21.3077744 C67.5716287,21.3077744 68.9824514,19.8700033 68.9824514,18.0918459 C68.9824514,16.3163169 67.5716287,14.8785458 65.8322582,14.8746031 L55.8005998,14.8746031 C52.7728067,14.8746031 50.3170732,12.3696748 50.3170732,9.28122686 C50.3170732,6.19146474 52.7728067,3.68653636 55.8005998,3.68653636 L69.4540141,3.68653636 C70.0982254,3.68653636 70.6200365,4.21748655 70.6200365,4.87591736 C70.6200365,5.53434817 70.0982254,6.06661259 69.4540141,6.06661259 L55.8005998,6.06661259 C54.0599408,6.06661259 52.6504065,7.50964058 52.6504065,9.28122686 C52.6504065,11.0567558 54.0599408,12.4932127 55.8005998,12.4984696 L65.8322582,12.4932127 Z M43.7080256,3.68653636 C46.8070343,3.68653636 49.3170732,6.19261429 49.3170732,9.2821734 C49.3170732,12.3691042 46.8083519,14.8725538 43.713296,14.8751821 C43.713296,14.8751821 43.7119784,14.8778104 43.7080256,14.8778104 L35.0539912,14.8778104 L31.7784234,14.8778104 C31.1855008,14.8778104 30.7058923,15.3561599 30.7058923,15.9475259 L30.7032571,19.2118665 L30.7032571,22.4972335 C30.7032571,23.1543069 30.1683092,23.6865364 29.5081887,23.6865364 C28.8507035,23.6865364 28.3170732,23.1543069 28.3170732,22.4972335 L28.3197084,15.9475259 C28.3197084,14.0433272 29.8665775,12.492634 31.7784234,12.492634 C31.7876466,12.492634 31.7955523,12.4992047 31.8047755,12.4992047 L43.7080256,12.492634 C45.4854757,12.492634 46.9295716,11.0575857 46.9295716,9.2821734 C46.9295716,7.50938938 45.4894285,6.07171279 43.7093432,6.0664562 C43.7093432,6.0664562 43.7093432,6.07171279 43.7080256,6.07171279 L29.5081887,6.07171279 C28.8507035,6.07171279 28.3170732,5.53422675 28.3170732,4.8810958 C28.3170732,4.22270825 28.8507035,3.6904788 29.5081887,3.6904788 L43.7080256,3.68653636 Z M24.3052686,4.88940117 L24.3170732,4.88151699 L24.3170732,22.4947564 L24.3013337,22.4908144 C24.3013337,22.7615042 24.2278831,23.0348222 24.0416332,23.2582071 C23.6219152,23.760166 22.8703577,23.8284955 22.3627612,23.4066923 L12.3170732,15.2229221 L2.27269674,23.4066923 C1.76772352,23.8324376 1.01485435,23.7641081 0.593824728,23.2582071 C0.408886484,23.0348222 0.332812596,22.7615042 0.334124215,22.4908144 L0.317073171,22.5000126 L0.317073171,4.99452345 L0.317073171,4.96035871 L0.317073171,4.88151699 L0.324942883,4.88151699 C0.324942883,4.60951307 0.401016771,4.33750915 0.587266634,4.11543832 C1.00698464,3.60822327 1.75591895,3.54252184 2.25826893,3.963011 L2.36975652,4.05105091 C2.37237976,4.054993 2.37631462,4.06287717 2.38024947,4.06681926 L10.8428137,10.9707256 L8.97375696,12.5015689 L2.69372636,7.38474149 L2.69372636,19.9915319 L5.57404115,17.6486189 C5.58059924,17.6420488 5.58715733,17.6420488 5.59240381,17.6341646 L8.388775,15.353011 L10.4335886,13.6868227 L10.4296538,13.6868227 L12.2973989,12.1625495 L19.0810911,17.695924 C19.1217513,17.7340308 19.1702812,17.7458571 19.2135646,17.7681955 L21.9417316,19.9915319 L21.9417316,7.3807994 L15.6420267,12.5120811 L13.7585422,10.9786097 L22.3706309,3.963011 C22.8742925,3.54252184 23.6219152,3.60822327 24.0416332,4.11543832 C24.2291947,4.34407929 24.3052686,4.61476919 24.3052686,4.88940117 Z" id="Combined-Shape"></path>
                </g>
            </g>
        </g>
    </g>
</svg>