<svg xmlns="http://www.w3.org/2000/svg" xmlns:xlink="http://www.w3.org/1999/xlink" viewBox="0 0 100 100">
  <defs>
    <linearGradient id="icon3-b" x1="100%" x2="0%" y1="33.749%" y2="33.749%">
      <stop offset="0%" stop-color="#FF995B"/>
      <stop offset="100%" stop-color="#FC3336"/>
    </linearGradient>
    <path id="icon3-a" d="M2.45901639,0 L40.9836066,0 C42.3416838,-2.49474744e-16 43.442623,1.10093914 43.442623,2.45901639 L43.442623,44.2622951 C43.442623,45.6203723 42.3416838,46.7213115 40.9836066,46.7213115 L2.45901639,46.7213115 C1.10093914,46.7213115 1.94267334e-15,45.6203723 0,44.2622951 L0,2.45901639 C-1.66316496e-16,1.10093914 1.10093914,-1.5268821e-15 2.45901639,0 Z"/>
    <linearGradient id="icon3-c" x1="75.827%" x2="19.901%" y1="22.828%" y2="102.516%">
      <stop offset="0%" stop-color="#FFA389"/>
      <stop offset="100%" stop-color="#D81616"/>
    </linearGradient>
    <filter id="icon3-e" width="198.4%" height="521.5%" x="-49.2%" y="-210.8%" filterUnits="objectBoundingBox">
      <feGaussianBlur in="SourceGraphic" stdDeviation="4.918"/>
    </filter>
    <rect id="icon3-g" width="22.951" height="2.459" x="31.551" y="69.107" rx="1.23"/>
    <filter id="icon3-f" width="117.4%" height="262.7%" x="-13.1%" y="-40.7%" filterUnits="objectBoundingBox">
      <feOffset dx="-1" dy="1" in="SourceAlpha" result="shadowOffsetOuter1"/>
      <feGaussianBlur in="shadowOffsetOuter1" result="shadowBlurOuter1" stdDeviation=".5"/>
      <feColorMatrix in="shadowBlurOuter1" values="0 0 0 0 0.979393116   0 0 0 0 0.215607351   0 0 0 0 0.154504489  0 0 0 0.541657561 0"/>
    </filter>
    <rect id="icon3-i" width="22.951" height="2.459" x="31.551" y="62.55" rx="1.23"/>
    <filter id="icon3-h" width="117.4%" height="262.7%" x="-13.1%" y="-40.7%" filterUnits="objectBoundingBox">
      <feOffset dx="-1" dy="1" in="SourceAlpha" result="shadowOffsetOuter1"/>
      <feGaussianBlur in="shadowOffsetOuter1" result="shadowBlurOuter1" stdDeviation=".5"/>
      <feColorMatrix in="shadowBlurOuter1" values="0 0 0 0 0.979393116   0 0 0 0 0.215607351   0 0 0 0 0.154504489  0 0 0 0.541657561 0"/>
    </filter>
    <linearGradient id="icon3-j" x1="52.909%" x2="10.548%" y1="50%" y2="67.251%">
      <stop offset="0%" stop-color="#FAFAFA"/>
      <stop offset="100%" stop-color="#EEE"/>
    </linearGradient>
    <linearGradient id="icon3-k" x1="33.148%" x2="100%" y1="69.519%" y2="23.292%">
      <stop offset="0%" stop-color="#C5C5C5"/>
      <stop offset="100%" stop-color="#F7F7F7"/>
    </linearGradient>
  </defs>
  <g fill="none" fill-rule="evenodd">
    <rect width="100" height="100"/>
    <g transform="translate(6.834 8.622)">
      <g transform="translate(21.715 33.042)">
        <mask id="icon3-d" fill="#fff">
          <use xlink:href="#icon3-a"/>
        </mask>
        <use fill="url(#icon3-b)" xlink:href="#icon3-a"/>
        <path fill="url(#icon3-c)" fill-rule="nonzero" d="M40.9836066,0 C42.3416838,0 43.442623,1.10093914 43.442623,2.45901639 L43.442623,44.2622951 C43.442623,45.6203723 42.3416838,46.7213115 40.9836066,46.7213115 L2.45901639,46.7213115 C1.10093914,46.7213115 -4.54747351e-13,45.6203723 -4.54747351e-13,44.2622951 L-4.54747351e-13,2.45901639 C-4.54747351e-13,1.10093914 1.10093914,0 2.45901639,0 L40.9836066,0 Z M40.9836066,0.819672131 L2.45901639,0.819672131 C1.60128339,0.819672131 0.897405881,1.4784058 0.825689503,2.31756749 L0.819672131,2.45901639 L0.819672131,44.2622951 C0.819672131,45.1200281 1.4784058,45.8239056 2.31756749,45.895622 L2.45901639,45.9016393 L40.9836066,45.9016393 C41.8413396,45.9016393 42.5452171,45.2429057 42.6169334,44.403744 L42.6229508,44.2622951 L42.6229508,2.45901639 C42.6229508,1.60128339 41.9642172,0.897405881 41.1250555,0.825689503 L40.9836066,0.819672131 Z" mask="url(#icon3-d)"/>
        <rect width="30" height="7" x="7.163" y="19.361" fill="#E70000" filter="url(#icon3-e)" rx="1.61"/>
      </g>
      <use fill="#000" filter="url(#icon3-f)" xlink:href="#icon3-g"/>
      <use fill="#FFF" xlink:href="#icon3-g"/>
      <use fill="#000" filter="url(#icon3-h)" xlink:href="#icon3-i"/>
      <use fill="#FFF" xlink:href="#icon3-i"/>
      <path fill="url(#icon3-j)" d="M70.1917307,56.7212974 L70.1914527,56.8122206 L18.4655234,56.8122206 C8.94304274,56.8122206 1.22354694,49.1134547 1.22354694,39.6165456 C1.22354694,30.2579411 8.71984024,22.645488 18.0506581,22.4257509 C19.5145971,10.3945882 29.789738,1.07451565 42.2475599,1.07451565 C54.7417915,1.07451565 65.0405651,10.4491462 66.4577893,22.5302706 C67.0973743,22.4578025 67.7482626,22.4208707 68.4078,22.4208707 C77.9302807,22.4208707 85.6497765,30.1196366 85.6497765,39.6165456 C85.6497765,48.5127151 78.876006,55.8310343 70.1917307,56.7212974 Z"/>
      <path fill="url(#icon3-k)" fill-rule="nonzero" d="M41.8674154,0.667542702 C29.7244404,0.850550938 19.5548323,9.78654437 17.7463897,21.6284242 L17.689,22.027 L17.3841838,22.0435225 C8.12404423,22.6013569 0.813710879,30.2707517 0.813710879,39.6165456 C0.813710879,49.3400479 8.71694287,57.2220566 18.4655234,57.2220566 L70.6000379,57.2220566 L70.6,57.087 L70.9011266,57.0477972 C79.5272258,55.8326567 86.0596125,48.4359279 86.0596125,39.6165456 C86.0596125,29.8930433 78.1563805,22.0110347 68.4078,22.0110347 L67.9048186,22.0180566 C67.5702852,22.0274145 67.2373861,22.0461157 66.9064763,22.0741027 L66.814,22.083 L66.7656955,21.7356277 C64.9845837,9.72099164 54.5981837,0.664679583 42.2475599,0.664679583 L41.8674154,0.667542702 Z M42.2475599,1.48435171 C54.3106714,1.48435171 64.4355896,10.4188608 66.0045084,22.2086666 L66.0983061,22.9834602 L66.5039305,22.937501 C67.1308983,22.8664624 67.7664196,22.8307068 68.4078,22.8307068 C77.7041808,22.8307068 85.2399404,30.3462299 85.2399404,39.6165456 C85.2399404,48.1282674 78.856748,55.2511541 70.4815598,56.2763092 L69.783024,56.3512118 L69.783,56.4023845 L18.4655234,56.4023845 C9.16914262,56.4023845 1.63338301,48.8868614 1.63338301,39.6165456 C1.63338301,30.4967559 8.93572724,23.0503536 18.0603069,22.8354733 L18.4146779,22.827128 L18.4574935,22.4752541 C19.9085851,10.549675 30.0972675,1.48435171 42.2475599,1.48435171 Z"/>
      <path fill="#FE5844" d="M44.839079,20.3263839 L56.5259131,31.5707454 C57.092842,32.1162099 57.108035,33.0157001 56.5598475,33.579813 C56.0116601,34.1439259 55.1076797,34.1590434 54.5407508,33.6135788 L45.2737437,24.6979747 L45.2744164,48.8340175 C45.2744164,49.6187181 44.6351155,50.2548435 43.8464978,50.2548435 C43.0578801,50.2548435 42.4185791,49.6187181 42.4185791,48.8340175 L42.4177437,24.6979747 L33.1522448,33.6135788 C32.5853159,34.1590434 31.6813354,34.1439259 31.133148,33.579813 C30.5849605,33.0157001 30.6001535,32.1162099 31.1670824,31.5707454 L42.8539166,20.3263839 C43.4074182,19.7938383 44.2855773,19.7938383 44.839079,20.3263839 Z"/>
    </g>
  </g>
</svg>
