<svg xmlns="http://www.w3.org/2000/svg" width="62" height="62" viewBox="0 0 62 62"><g fill="none" fill-rule="evenodd"><rect width="62" height="62"/><path fill="#FFF" fill-rule="nonzero" d="M5,31.043 L21.468,42.097 L5.21512135,52.9764412 C5.15171003,53.0188863 5.06589643,53.0018899 5.02345131,52.9384786 C5.00822968,52.915738 5,52.8889896 5,52.8616249 L5,31.043 Z M39.4780241,30.643 L39.4780241,52.742 L23.0870241,41.7703382 L39.4780241,30.643 Z M40.6080241,22.256 L56.9990241,33.258 L57,41.6227831 C57,41.7149918 56.9540063,41.8011247 56.8773794,41.8524158 L40.6080241,52.742 L40.6080241,22.256 Z M21.933244,10.0615214 C21.9484656,10.084262 21.9565916,10.1110104 21.9565916,10.1383751 L21.956,41.056 L5,29.675 L5,21.3772169 C5,21.2850082 5.04609742,21.1988753 5.12272424,21.1475842 L21.7415739,10.0235588 C21.8049853,9.98111366 21.8907989,9.99811012 21.933244,10.0615214 Z M56.9766524,10.0615214 C56.991874,10.084262 57,10.1110104 57,10.1383751 L56.9990241,31.89 L40.6080241,20.889 L40.6080241,20.851 L56.7849823,10.0235588 C56.8483936,9.98111366 56.9342072,9.99811012 56.9766524,10.0615214 Z" transform="matrix(-1 0 0 1 62 0)"/></g></svg>