<svg xmlns="http://www.w3.org/2000/svg" xmlns:xlink="http://www.w3.org/1999/xlink" viewBox="0 0 72 72">
  <defs>
    <path id="金山文档-a" d="M16.0065528,0 L29.6635045,8.03504299 L29.6635045,26.7473664 L0.964289708,9.7122384 C0.654212805,9.52818459 0.552050902,9.12761252 0.736104708,8.81753562 C0.793777647,8.72037357 0.875678454,8.63984152 0.973798629,8.58381418 L16.0065528,0 L16.0065528,0 Z"/>
    <linearGradient id="金山文档-b" x1="99.859%" x2="71.355%" y1="35.915%" y2="76.043%">
      <stop offset="0%" stop-color="#0044B1"/>
      <stop offset="100%" stop-color="#0062FF" stop-opacity="0"/>
    </linearGradient>
    <linearGradient id="金山文档-d" x1="12.043%" x2="62.374%" y1="74.117%" y2="37.893%">
      <stop offset="0%" stop-color="#1A4ACC"/>
      <stop offset="100%" stop-color="#0854E4"/>
    </linearGradient>
    <linearGradient id="金山文档-e" x1="50%" x2="50%" y1="86.166%" y2="12.441%">
      <stop offset="0%" stop-color="#0A5DF6"/>
      <stop offset="100%" stop-color="#124CDC"/>
    </linearGradient>
    <path id="金山文档-f" d="M15.8876842,-2.92337583e-13 L30.4614957,7.3957204 L30.4614957,25.6669582 L1.03488376,9.13527105 C0.720509518,8.95865755 0.608832365,8.56063335 0.785445855,8.2462591 C0.846081854,8.13832627 0.936154473,8.04985714 1.04515896,7.99116945 L15.8876842,-2.92337583e-13 L15.8876842,-2.92337583e-13 Z"/>
    <linearGradient id="金山文档-g" x1="100%" x2="71.355%" y1="37.297%" y2="73.161%">
      <stop offset="0%" stop-color="#0044B1"/>
      <stop offset="100%" stop-color="#0062FF" stop-opacity="0"/>
    </linearGradient>
    <linearGradient id="金山文档-i" x1="50%" x2="50%" y1="0%" y2="100%">
      <stop offset="0%" stop-color="#4AC3FF"/>
      <stop offset="100%" stop-color="#0E93F8"/>
    </linearGradient>
  </defs>
  <g fill="none" fill-rule="evenodd">
    <g transform="translate(4 1)">
      <g transform="translate(1.765 42.892)">
        <path fill="#0062FF" fill-rule="nonzero" d="M16.0065528,0 L29.6635045,8.03504299 L29.6635045,26.7473664 L0.964289708,9.7122384 C0.654212805,9.52818459 0.552050902,9.12761252 0.736104708,8.81753562 C0.793777647,8.72037357 0.875678454,8.63984152 0.973798629,8.58381418 L16.0065528,0 L16.0065528,0 Z"/>
        <mask id="金山文档-c" fill="#fff">
          <use xlink:href="#金山文档-a"/>
        </mask>
        <polygon fill="url(#金山文档-b)" fill-rule="nonzero" points="29.664 26.747 29.664 8.035 16.848 -.531 .093 9.188" mask="url(#金山文档-c)" opacity=".6"/>
      </g>
      <polygon fill="url(#金山文档-d)" fill-rule="nonzero" points="61.324 34.818 61.768 53.229 31.429 69.64 31.429 51.068"/>
      <polygon fill="url(#金山文档-e)" fill-rule="nonzero" points="61.768 53.229 61.768 16.929 47.86 24.365 47.86 42.066"/>
      <g transform="translate(.967 25.532)">
        <path fill="#0082FF" fill-rule="nonzero" d="M15.8876842,-2.92337583e-13 L30.4614957,7.3957204 L30.4614957,25.6669582 L1.03488376,9.13527105 C0.720509518,8.95865755 0.608832365,8.56063335 0.785445855,8.2462591 C0.846081854,8.13832627 0.936154473,8.04985714 1.04515896,7.99116945 L15.8876842,-2.92337583e-13 L15.8876842,-2.92337583e-13 Z"/>
        <mask id="金山文档-h" fill="#fff">
          <use xlink:href="#金山文档-f"/>
        </mask>
        <path fill="url(#金山文档-g)" fill-rule="nonzero" d="M30.4614957,26.4996368 L30.4614957,8.33034145 L15.3551641,0 L1.48997438,7.75760973 C1.01795192,8.02170753 0.849395672,8.61845091 1.11349347,9.09047337 C1.19834368,9.24212633 1.32201764,9.36847147 1.47182311,9.45654243 L30.4614957,26.4996368 L30.4614957,26.4996368 Z" mask="url(#金山文档-h)" opacity=".601"/>
      </g>
      <path fill="url(#金山文档-i)" fill-rule="nonzero" d="M29.7611525,0.359044897 L0.489542421,16.8385404 C0.175328227,17.0154384 0.0640115157,17.4135636 0.240909589,17.7277778 C0.299473147,17.831801 0.385435315,17.9177773 0.489448873,17.9763579 L30.3989038,34.8214287 L30.3989038,34.8214287 L60.7381453,16.9285714 L31.0380195,0.356611173 C30.6409961,0.135081658 30.1573284,0.136003533 29.7611525,0.359044897 Z" transform="translate(1.03)"/>
    </g>
    <rect width="72" height="72"/>
  </g>
</svg>
