<?xml version="1.0" encoding="UTF-8"?>
<svg width="62px" height="62px" viewBox="0 0 62 62" version="1.1" xmlns="http://www.w3.org/2000/svg" xmlns:xlink="http://www.w3.org/1999/xlink">
    <title>金山文档</title>
    <defs>
        <rect id="path-1" x="0" y="0" width="62" height="62"></rect>
    </defs>
    <g id="页面-1" stroke="none" stroke-width="1" fill="none" fill-rule="evenodd">
        <g id="02状态标注" transform="translate(-693.000000, -2689.000000)">
            <g id="头图视觉-wps+" transform="translate(163.000000, 2281.000000)">
                <g id="金山文档文字" transform="translate(530.000000, 404.000000)">
                    <g id="形状" transform="translate(0.000000, 4.000000)">
                        <mask id="mask-2" fill="white">
                            <use xlink:href="#path-1"></use>
                        </mask>
                        <g id="蒙版"></g>
                        <path d="M14.988,36.246 L28.7393366,44.1231814 L28.7393366,54.6772068 L6.49639848,41.962776 C6.25694582,41.8252368 6.17432864,41.5196245 6.31186785,41.2801719 C6.35617366,41.2030364 6.42025563,41.1391175 6.49750364,41.0950083 L14.988,36.246 Z M40.277,36.586 L50.152,42.287 L30.7847025,53.4520086 L30.7847025,42.3150086 L40.277,36.586 Z M15.278,22.836 L28.7393366,30.4727798 L28.7393366,41.7400538 L16.999,35.098 L17.109,35.035 L6.25061189,28.7835859 C6.01129751,28.6458063 5.92898736,28.3401111 6.06676704,28.1007967 C6.11159702,28.02293 6.17658092,27.9585819 6.25488474,27.9145198 L15.278,22.836 Z M51.7745914,17.4196819 L51.7745914,40.7296819 L41.74,35.121 L41.763,23.056 L51.7745914,17.4196819 Z M29.0321864,2.07536071 L29.1512968,2.1339746 L51.5247252,15.0512795 L51.347,15.153 L51.4893366,15.0952995 L51.489,15.131 L41.767,20.744 L41.767,20.684 L28.659,28.253 L15.6281207,20.7292741 L15.624,20.736 L6.52786834,15.4842922 C6.47719527,15.4550361 6.43225139,15.4172312 6.39491642,15.3727573 L6.34485564,15.3012795 C6.22212569,15.088705 6.27322983,14.8234697 6.45406159,14.6701811 L6.52786834,14.6182668 L28.1512968,2.1339746 C28.3833476,2 28.6557841,1.96650635 28.9080277,2.03349365 L29.0321864,2.07536071 Z" fill="#FFFFFF" fill-rule="nonzero" mask="url(#mask-2)"></path>
                    </g>
                </g>
            </g>
        </g>
    </g>
</svg>