<svg xmlns="http://www.w3.org/2000/svg" viewBox="0 0 16 16">
  <g fill="none" fill-rule="evenodd">
    <path fill="#417FF9" fill-rule="nonzero" d="M8.00340426,0 C12.4216823,0 16.0034043,3.581722 16.0034043,8 C16.0034043,12.418278 12.4216823,16 8.00340426,16 C3.58512626,16 0.00340425532,12.418278 0.00340425532,8 C0.00340425532,3.581722 3.58512626,0 8.00340426,0 Z M8.00340426,2 C4.68969576,2 2.00340426,4.6862915 2.00340426,8 C2.00340426,11.3137085 4.68969576,14 8.00340426,14 C11.3171128,14 14.0034043,11.3137085 14.0034043,8 C14.0034043,4.6862915 11.3171128,2 8.00340426,2 Z"/>
    <path fill="#417FF9" fill-rule="nonzero" d="M6.45261165,11.11435 C5.2968447,10.9903597 5.2968447,9.25228102 6.45261165,9.1282907 L6.58578644,9.12132034 L7.707,9.121 L5.17157288,6.58578644 C4.81108891,6.22530248 4.78335938,5.65807142 5.08838427,5.26578021 L5.17157288,5.17157288 C5.53205684,4.81108891 6.09928789,4.78335938 6.4915791,5.08838427 L6.58578644,5.17157288 L9.121,7.707 L9.12132034,6.58578644 C9.12132034,6.0729506 9.50736053,5.65027928 10.0046992,5.59251417 L10.1213203,5.58578644 C10.6341562,5.58578644 11.0568275,5.97182663 11.1145926,6.46916531 L11.1213203,6.58578644 L11.1223736,10.0706896 C11.1267318,10.169946 11.1160508,10.2689174 11.0917318,10.3642214 L11.0630217,10.4585791 L11.0196792,10.561095 L10.9792618,10.6357479 C10.8286801,10.8895064 10.5679663,11.0798133 10.2349513,11.1153371 L10.1213203,11.1213203 L6.58578644,11.1213203 L6.45261165,11.11435 Z" transform="rotate(45 8.001 8)"/>
  </g>
</svg>
