<svg xmlns="http://www.w3.org/2000/svg" viewBox="0 0 72 72">
  <defs>
    <linearGradient id="金山词霸icon-a" x1="50%" x2="50%" y1="100%" y2="0%">
      <stop offset="0%" stop-color="#0096F1"/>
      <stop offset="100%" stop-color="#00B7FC"/>
    </linearGradient>
  </defs>
  <g fill="none" fill-rule="evenodd">
    <path fill="url(#金山词霸icon-a)" d="M10.2555408,-4.14336123e-16 L61.7444592,4.14336123e-16 C65.3105342,-2.4074122e-16 66.6036791,0.371302445 67.9073828,1.06853082 C69.2110865,1.76575919 70.2342408,2.78891348 70.9314692,4.09261719 C71.6286976,5.39632089 72,6.68946584 72,10.2555408 L72,61.7444592 C72,65.3105342 71.6286976,66.6036791 70.9314692,67.9073828 C70.2342408,69.2110865 69.2110865,70.2342408 67.9073828,70.9314692 C66.6036791,71.6286976 65.3105342,72 61.7444592,72 L10.2555408,72 C6.68946584,72 5.39632089,71.6286976 4.09261719,70.9314692 C2.78891348,70.2342408 1.76575919,69.2110865 1.06853082,67.9073828 C0.371302445,66.6036791 1.60494146e-16,65.3105342 -2.76224082e-16,61.7444592 L2.76224082e-16,10.2555408 C-1.60494146e-16,6.68946584 0.371302445,5.39632089 1.06853082,4.09261719 C1.76575919,2.78891348 2.78891348,1.76575919 4.09261719,1.06853082 C5.39632089,0.371302445 6.68946584,2.4074122e-16 10.2555408,-4.14336123e-16 Z"/>
    <rect width="72" height="72" fill="#0E9AD6" rx="8"/>
    <polygon fill="#FFD800" points="12.656 22.41 12.656 59.096 22.5 49.313 22.5 22.41 22.5 12.626"/>
    <polygon fill="#FFD800" points="17.578 22.41 17.578 59.096 27.281 49.313 27.281 22.41 27.281 12.626"/>
    <polygon fill="#FFD800" points="22.5 49.359 27.281 49.359 27.281 12.656 22.5 12.656"/>
    <polygon fill="#FFD800" points="12.656 59.203 17.578 59.203 17.578 22.5 12.656 22.5"/>
    <polygon fill="#F5004B" points="54.266 59.203 17.579 59.203 27.362 49.359 54.266 49.359 64.049 49.359"/>
    <polygon fill="#F5004B" points="54.266 54.281 17.579 54.281 27.362 44.578 54.266 44.578 64.049 44.578"/>
    <polygon fill="#F5004B" points="27.281 49.359 63.984 49.359 63.984 44.578 27.281 44.578"/>
    <polygon fill="#F5004B" points="17.578 59.203 54.141 59.203 54.141 54.281 17.578 54.281"/>
    <path fill="#FFF" d="M27.4031297,30.1953797 C27.4031297,25.4002078 31.2904266,21.5129109 36.0855984,21.5129109 C40.8807703,21.5129109 44.7682078,25.4002078 44.7682078,30.1953797 C44.7682078,34.9906922 40.8807703,38.8778484 36.0855984,38.8778484 C31.2904266,38.8778484 27.4031297,34.9906922 27.4031297,30.1953797 M54.7918172,45.3255047 L47.1873797,37.7209266 C48.6448172,35.5751297 49.4967234,32.9848172 49.4967234,30.1953797 C49.4967234,22.7886609 43.4924578,16.7843953 36.0855984,16.7843953 C28.6788797,16.7843953 22.6746141,22.7886609 22.6746141,30.1953797 C22.6746141,37.6020984 28.6788797,43.6063641 36.0855984,43.6063641 C38.9800828,43.6063641 41.6602547,42.6894891 43.8517547,41.1302391 L51.4194891,48.6978328 C52.3508484,49.6290516 53.8605984,49.6290516 54.7918172,48.6978328 C55.7231766,47.7666141 55.7231766,46.2567234 54.7918172,45.3255047"/>
  </g>
</svg>
