<?xml version="1.0" encoding="utf-8"?>
<!-- Generator: Adobe Illustrator 24.1.3, SVG Export Plug-In . SVG Version: 6.00 Build 0)  -->
<svg version="1.1" id="图层_1" xmlns="http://www.w3.org/2000/svg" xmlns:xlink="http://www.w3.org/1999/xlink" x="0px" y="0px"
	 viewBox="0 0 891 80" style="enable-background:new 0 0 891 80;" xml:space="preserve">
<style type="text/css">
	.st0{fill:#D20029;}
	.st1{fill:#FF0040;}
	.st2{fill:#831A2D;}
</style>
<g>
	<g>
		<g>
			<path d="M364.8,30.5h-9.5l5.7,12.3h-26l9.3-19.9h-9.5l-9.9,21c-1.3,2.8,0.7,6,3.9,6h38.4c3.1,0,5.2-3.3,3.9-6L364.8,30.5z"/>
			<g>
				<polygon points="318.7,26.4 329.8,2.6 339.4,2.6 328.3,26.4 				"/>
				<polygon points="377.3,26.4 366.2,2.6 356.6,2.6 367.7,26.4 				"/>
			</g>
			<path d="M282.7,57.9c2.9,0,5.4,1.1,7.5,3.1c2,2,3,4.6,3,7.5c0,1.9-0.5,3.6-1.4,5.3c-1,1.7-2.2,3-3.9,3.9c-1.6,1-3.4,1.4-5.3,1.4
				c-2.9,0-5.3-1.1-7.4-3.1c-2-2-3-4.6-3-7.5c0-1.9,0.5-3.6,1.4-5.3c1-1.7,2.2-2.9,3.7-3.9C279,58.3,280.7,57.9,282.7,57.9z
				 M276.8,68.4c0,1.8,0.6,3.3,1.7,4.5s2.5,1.8,4.2,1.8s3.1-0.6,4.2-1.8c1.1-1.2,1.7-2.7,1.7-4.5s-0.6-3.3-1.7-4.5
				c-1.1-1.2-2.5-1.8-4.2-1.8s-3.1,0.6-4.2,1.8C277.2,65.1,276.8,66.6,276.8,68.4z"/>
			<polygon points="127.2,68.5 135.7,58.3 130.1,58.3 122.9,66.9 122.9,58.3 118.3,58.3 118.3,78.6 122.9,78.6 122.9,69.9 
				130.1,78.6 135.7,78.6 127.1,68.5 			"/>
			<path d="M138.4,78.6V58.3h4.5v20.4L138.4,78.6L138.4,78.6z"/>
			<path d="M160.5,71.8V58.3h4.3v20.4h-4.6l-8.8-13.4v13.4h-4.3V58.3h4.6L160.5,71.8z"/>
			<path d="M197.7,61.7c-0.8,0-1.6,0.2-2,0.6s-0.7,0.8-0.7,1.4s0.2,1.1,0.7,1.4c0.5,0.4,1.6,0.7,3,1.3c2.3,0.8,3.9,1.7,4.7,2.8
				c0.8,1,1.3,2.3,1.3,3.9c0,1.7-0.7,3-2,4.2c-1.4,1.1-3.3,1.7-5.5,1.7c-1.2,0-2.7-0.2-4-0.7c-1.4-0.5-2.5-1.1-3.5-1.9l2.5-3.1
				c1.8,1.3,3.5,1.9,5.2,1.9c1,0,1.7-0.1,2.2-0.5s0.7-0.8,0.7-1.3c0-0.7-0.2-1.2-0.8-1.6c-0.5-0.4-1.2-0.7-2.4-1.1
				c-1.3-0.5-2.5-1-3.4-1.4c-1-0.5-1.7-1.2-2.3-2s-1-1.9-1-3.3c0-1.7,0.7-3.1,2-4.3s3.1-1.7,5.2-1.7c2.3,0,4.5,0.6,6.5,1.7l-1.9,3.4
				C200.5,62,199.2,61.7,197.7,61.7z"/>
			<path d="M217.4,57.9c2.9,0,5.4,1.1,7.5,3.1c2,2,3.1,4.6,3.1,7.5c0,1.9-0.5,3.7-1.4,5.3c-1,1.7-2.3,3-3.9,3.9
				c-1.6,1-3.4,1.4-5.3,1.4c-2.9,0-5.4-1.1-7.5-3.1c-2-2-3-4.6-3-7.5c0-1.9,0.5-3.7,1.4-5.3c1-1.7,2.2-2.9,3.9-3.9
				C213.7,58.3,215.5,57.9,217.4,57.9z M211.5,68.5c0,1.8,0.6,3.3,1.7,4.5s2.5,1.8,4.2,1.8s3.1-0.6,4.3-1.8c1.1-1.2,1.7-2.7,1.7-4.5
				s-0.6-3.4-1.7-4.5c-1.1-1.2-2.5-1.8-4.3-1.8c-1.7,0-3.1,0.6-4.2,1.8C212.1,65.1,211.5,66.7,211.5,68.5z"/>
			<path d="M235.3,62.2v4.3h8.3l-0.7,3.9h-7.6v8.3h-4.5V58.3h13.5l-0.7,4C243.6,62.2,235.3,62.2,235.3,62.2z"/>
			<path d="M300.4,62.2v4.3h8.3l-0.7,3.9h-7.6v8.3h-4.5V58.3h13.5l-0.7,4C308.7,62.2,300.4,62.2,300.4,62.2z"/>
			<path d="M316.6,62.2v4.3h8.3l-0.7,3.9h-7.6v8.3h-4.5V58.3h13.5l-0.7,4C325,62.2,316.6,62.2,316.6,62.2z"/>
			<path d="M256.2,62.2v16.5h-4.5V62.2h-5.3v-4h15.9l-0.7,4H256.2z"/>
			<path d="M328.4,78.6V58.3h4.5v20.4L328.4,78.6L328.4,78.6z"/>
			<g>
				<path d="M346.8,79.1c-6,0-10.6-4.7-10.6-10.6l0,0c0-5.9,4.5-10.6,10.7-10.6c3.9,0,6.3,1.3,8.1,3.1l-2.7,3c-1.7-1.4-3.5-2-5.5-2
					c-3.5,0-6,2.9-6,6.4l0,0c0,3.5,2.5,6.5,6,6.5c2.4,0,4-0.7,5.7-2.2l2.7,2.8C353,77.7,350.6,79.1,346.8,79.1z"/>
			</g>
			<path d="M357.6,78.6V58.3h14.1l-0.8,4h-8.8v4.3h9.3l-0.8,3.9h-8.4v4.3h9.2v4L357.6,78.6L357.6,78.6z"/>
			<g>
				<path d="M178.7,79.1c-6.4,0-10.6-4.5-10.6-10.6l0,0c0-5.9,4.2-10.6,10.6-10.6c3.6,0,6,1,8.2,2.8l-2.2,3.1
					c-1.8-1.2-3.3-1.9-6-1.9c-3.9,0-6.4,3-6.4,6.5l0,0c0,3.7,2.8,6.5,6.5,6.5c1.7,0,3.1-0.4,4.3-1.2v-2.9h-4.6l1-3.9h8.2v8.9
					C185.4,77.7,182.5,79.1,178.7,79.1z"/>
			</g>
			<path d="M235.1,10.4V43h-14.6V0.9l-8.6,1.3v40.6h-13.7c-0.4,0-0.7-0.4-0.7-0.7V9l-8.6,1.3v33v0.8c0,3.3,2.7,5.8,5.8,5.8h48.2
				c0.5,0,0.8-0.4,0.8-0.8V9L235.1,10.4z"/>
			<path d="M174.1,22.5v-5.9l4.1,1.3v-7.5l-29.4-9.3c-0.4-0.1-0.7-0.1-1.1,0l-29.4,9.3v7.5l4.1-1.3v5.9h21.3v4.3h-21.3v6.9h21.3v9.4
				h-9.6l-2.7-6.6h-8.9l2.7,6.6h-6.9v7h59.8v-7h-6.7l2.7-6.6h-8.9l-2.7,6.6h-9.8v-9.4H174v-6.9h-21.3v-4.3
				C152.7,22.5,174.1,22.5,174.1,22.5z M148.2,8.4l22.8,7.2h-45.5L148.2,8.4z"/>
			<g>
				<path d="M312.9,23.4l-8.1-2v-9.9c0-2.9-2.4-5.3-5.3-5.3h-17.2l1.3-5.2h-9l-1.3,5.2h-15.2v7.2h13.4L262.1,50h9l9.4-36.6h14.9
					c0.5,0,0.8,0.4,0.8,0.8V43h-10.6l-1.7,7.1h20c0.5,0,0.8-0.4,0.8-0.8V29.9l8.1,2L312.9,23.4L312.9,23.4z"/>
				<polygon points="257.2,17.9 252.2,37.8 260.4,37.8 265.4,17.9 				"/>
			</g>
		</g>
		<g>
			<path class="st0" d="M55.6,79.1H1.7c-1.1,0-1.9-1-1.7-2l11.8-62.7c0.1-0.7,0.7-1.2,1.4-1.2H70l-12.1,64
				C57.7,78.3,56.7,79.1,55.6,79.1z"/>
			<path class="st1" d="M109,1.8c0.3-0.4,0-0.9-0.4-0.9H49c-0.8,0-1.5,0.6-1.6,1.3l-11.5,61l-0.4,1.9c0.3-0.6,0.9-1.4,2.2-1.4
				c0.3,0,0.2,0,0.2,0h58.9c0.5,0,0.9-0.5,0.7-1L85.8,33.3c-0.2-0.6-0.1-1.3,0.3-1.9L109,1.8z"/>
			<path class="st2" d="M58.6,73.8l1.9-10.1H37.6c-2.7,0-3.3,3.8-0.7,4.7l19.2,6.1c1.2,0.4,2,1.6,1.7,2.9L58.6,73.8z"/>
		</g>
	</g>
	<g>
		<g>
			<path d="M453.5,23.8l5.4-8.8l-6.3,1.6c-0.3,0.1-0.6,0-0.8,0c-0.2-0.1-0.3-0.2-0.6-0.4l-1.1-2.9l2.1,0.1c1.1-1.6,2.1-3.2,3.1-5.3
				c1-1.9,1.9-4,2.6-6.3l4.4,2.3c0.1,0.1,0.1,0.2,0.1,0.2c0,0.1-0.1,0.2-0.2,0.2l-1,0.3c-1.1,1.6-2.2,3.1-3.5,4.5s-2.6,2.6-4.1,3.7
				l6,0.3l2-3.2l3.8,3.1c0.1,0.1,0.1,0.2,0.1,0.3c-0.1,0.1-0.2,0.2-0.4,0.2h-1.2l-8.5,9.4l9.4-1.8l0.4,0.7l-12.5,5.4
				c-0.6,0.2-0.9,0-1.2-0.3l-1.2-2.9L453.5,23.8z M465.1,28.2l0.6,0.7l-12.4,6.5c-0.3,0.1-0.6,0.1-0.7,0.1s-0.3-0.2-0.6-0.4
				l-1.3-3.1L465.1,28.2z M472.4,21.3c0.1,0.1,0.2,0.1,0.2,0.2s0,0.2-0.1,0.2l-1.1,0.8c-0.3,1.2-0.6,2.5-1,3.5
				c-0.3,1.1-0.8,2.1-1.2,3c0.7,0.9,1.5,1.8,2.3,2.5c0.9,0.7,1.8,1.1,2.8,1.3c0.2,0.1,0.3,0.1,0.3,0.1V15.6h-3l-2.8,0.2l-1.5-1.5
				l4.4,0.1h9.8l2.7-2.3c0.7,0.4,1.1,1,1.7,1.5c0.4,0.4,0.9,1.1,1.5,1.7l-0.3,0.3h-8.8v7.6h2.6l2.6-2c0.7,0.4,1.2,0.8,1.7,1.2
				c0.4,0.4,0.9,1,1.3,1.6l-0.3,0.3h-7.9v9c0.1,0,0.2,0,0.4,0c0.1,0,0.2,0,0.4,0c1.7-0.1,3.2-0.2,4.6-0.2c1.5-0.1,2.7-0.2,3.7-0.2
				c1-0.1,1.9-0.1,2.6-0.2c0.7-0.1,1-0.1,1.1-0.1V33c-0.7,0.6-1.2,1.1-1.6,1.7c-0.3,0.6-0.6,1.1-0.9,2c0,0.6-0.3,0.9-0.9,0.9
				l-12.1-0.9c-0.4,0-0.9-0.1-1.3-0.1c-0.4-0.1-0.8-0.2-1.1-0.4c-0.8-0.6-1.6-1.3-2.3-2.3c-0.8-1-1.6-2-2.2-3.2
				c-1,1.7-2.2,3.1-3.7,4.5c-1.5,1.3-3.2,2.6-5.4,3.8l-0.6-0.2c1.6-1.3,2.9-2.8,4-4.1c1.1-1.5,2-2.9,2.7-4.4
				c0.7-1.6,1.2-3.1,1.7-4.8c0.3-1.7,0.7-3.5,0.9-5.5L472.4,21.3z M467.7,4.8c0.3,0.1,0.7,0.2,0.9,0.4c0.3,0.2,0.6,0.4,0.9,0.7
				c0.3,0.3,0.7,0.7,1,1.1l0.2,0.4h3.9V2.1c0.8,0.1,1.6,0.2,2.3,0.6c0.8,0.2,1.3,0.7,2,1c0.1,0,0.1,0.1,0,0.2l-0.8,0.9v2.8h5.5
				l1.9-2.1l3.1,2.5c0.2,0.3,0.3,0.6,0.4,1c0.1,0.3,0,0.6-0.3,0.7c-0.6,0.1-1,0.2-1.5,0.3c-0.4,0.1-0.9,0.2-1.2,0.4
				c-0.4,0.1-0.9,0.3-1.2,0.6c-0.4,0.2-0.9,0.6-1.5,0.9l-0.4-0.2l0.9-2.8h-12.7c0,0.4-0.1,0.8-0.4,1.1c-0.6,0.7-1.1,1.2-1.8,1.7
				c-0.7,0.4-1.5,0.8-2.2,1.1c-0.7,0.2-1.1,0.2-1.3-0.2c-0.2-0.3,0-0.8,0.4-1.2c0.8-0.7,1.3-1.7,1.7-2.8
				C467.6,7.3,467.7,6.2,467.7,4.8z"/>
			<path d="M530.2,2.6c0.8,0.3,1.6,0.8,2.3,1.5c0.1,0.1,0.1,0.1,0,0.3l-1.2,1.3v3.1h2.9l2.7-2.3c0.6,0.4,1.1,0.9,1.6,1.5
				s0.9,1.1,1.3,1.7l-0.3,0.3H525l3.7,1c0.1,0.1,0.2,0.1,0.2,0.2c0,0.1-0.1,0.2-0.2,0.2l-0.9,0.8v4.4h4.2l2.3-2.3
				c0.6,0.3,1,0.6,1.5,0.8c0.3,0.2,0.8,0.6,1.1,1c1.6-2.5,2.7-4.8,3.5-7.1s1.3-4.8,1.7-7.1l4.4,1.7c0.1,0.1,0.1,0.1,0.1,0.2
				c0,0.1-0.1,0.2-0.2,0.2l-1,0.6c-0.6,1.5-1.1,2.8-1.8,4.1h7.6l2.5-2.2c0.7,0.4,1.2,0.8,1.7,1.2c0.4,0.4,0.9,1,1.3,1.7l-0.2,0.3
				H543c-0.3,0.4-0.6,1-0.9,1.5c-0.3,0.4-0.7,0.9-1,1.3c0.7,4.4,2,8.2,3.9,11.3c0.9-2,1.6-4.1,2-6.4s0.8-4.9,1-7.7l4.7,1.6
				c0.1,0.1,0.1,0.1,0.1,0.2c0,0.1,0,0.1-0.1,0.1l-0.9,0.7c-0.3,2.8-0.8,5.4-1.6,7.8c-0.7,2.5-1.8,4.7-3.1,6.7
				c2.6,3,5.9,5.5,10.1,7.5v0.4c-0.7,0.2-1.3,0.6-2.1,1.1c-0.7,0.6-1.2,1.1-1.6,1.8c-0.1,0.2-0.3,0.3-0.6,0.3s-0.4,0-0.6-0.1
				c-1.8-1.2-3.2-2.5-4.5-3.7s-2.3-2.7-3.2-4.1c-1.9,2-4.1,3.8-6.9,5.4c-2.7,1.6-6,3-9.9,4.2l-0.7-0.6c3.9-1.6,7.1-3.4,9.7-5.3
				c2.7-1.9,4.8-4.1,6.4-6.7c-0.8-1.9-1.5-3.9-1.9-6.1s-0.8-4.7-1-7.5c-0.4,0.6-0.9,1.1-1.3,1.6c-0.4,0.6-1,1-1.6,1.6l0.1,0.1
				c0.1,0.1,0.1,0.2,0,0.3l-1.5,1.3L535.6,30c-0.1,0.6-0.2,1-0.3,1.3s-0.2,0.8-0.3,1.1s-0.3,0.7-0.6,1s-0.4,0.7-0.7,1
				c-0.6,0.7-1.1,1.1-1.8,1.5c-0.7,0.3-1.3,0.7-2.2,0.9c-0.3,0.1-0.7,0.1-0.9-0.1c-0.2-0.1-0.4-0.3-0.4-0.7c-0.1-1-0.4-1.7-0.8-2.2
				c-0.4-0.6-1.1-0.9-2-1.1v-0.6c0.7,0,1.2,0,1.7,0c0.4,0,0.9-0.1,1.3-0.1c0.3,0,0.8-0.1,1.1-0.2s0.7-0.1,1.1-0.2
				c0.3-0.1,0.7-0.3,1-0.6c0.2-0.2,0.4-0.6,0.4-1l0.7-12.3h-5v2.1c0,2.2-0.2,4.4-0.8,6.4s-1.2,3.8-2.2,5.6c-0.9,1.7-2.1,3.2-3.4,4.7
				c-1.3,1.5-2.8,2.7-4.4,3.7l-0.3-0.3c2.7-2.6,4.7-5.6,5.8-8.8c1.2-3.4,1.8-7.1,1.8-11.4V9.9h-2.9l-2.7,0.2l-1.1-1.5l3.9,0.1h6.3
				v-7C528.6,2,529.4,2.4,530.2,2.6z"/>
			<path d="M607.1,13.3h-8.6c-0.4,1.3-1,2.6-1.8,3.7s-1.7,2-2.7,2.9c-1.1,0.9-2.3,1.6-3.7,2.2c-1.5,0.7-3,1.3-4.8,1.9l-0.3-0.3
				c2.8-1.3,4.9-2.8,6.5-4.5s2.8-3.6,3.6-5.9h-5l-2.1,0.2l-1.5-1.5l4.1,0.1h4.8c0.2-0.8,0.4-1.7,0.6-2.6s0.2-1.8,0.2-2.8h-2.8
				c-0.7,0.9-1.5,1.7-2.2,2.6c-0.9,0.8-1.9,1.6-3.1,2.5l-0.2-0.3c0.7-0.9,1.3-1.7,1.8-2.5c0.6-0.8,1-1.7,1.5-2.5
				c0.4-0.9,0.8-1.8,1.1-2.7s0.7-1.9,0.9-3l3.6,1.9c0,0.2,0.1,0.3,0,0.3c-0.1,0.1-0.1,0.1-0.2,0.2l-0.9,0.3
				c-0.4,0.8-0.9,1.6-1.3,2.2h6.8l2.6-2c0.7,0.4,1.1,0.8,1.6,1.2s0.9,1,1.2,1.7l-0.6,0.2h-6.5c-0.1,2.1-0.4,3.8-0.8,5.4h2.5l2.9-2.2
				c0.6,0.4,1.1,0.9,1.7,1.3c0.6,0.6,1,1.1,1.6,1.8L607.1,13.3z M613.2,36.5h-14.9c0,0.6,0,0.9,0,1.2s-0.1,0.7-0.2,0.9
				c-0.1,0.2-0.3,0.4-0.7,0.7c-0.2,0.2-0.6,0.3-1,0.6s-0.9,0.2-1.2,0.1c-0.4-0.1-0.6-0.4-0.6-0.9V21.2c0.8,0.1,1.6,0.3,2.3,0.7
				c0.7,0.2,1.3,0.6,2,1h13.9l2-2.2c0.7,0.4,1.3,0.8,1.8,1.1c0.4,0.3,1,0.8,1.6,1.3c0.1,0.1,0.1,0.2,0,0.2l-1.3,1.5v13
				c-0.2,0.6-0.6,0.9-1,1.1c-0.4,0.2-0.8,0.4-1.2,0.6c-0.4,0.1-1,0.2-1.5,0.2L613.2,36.5L613.2,36.5z M598.2,23.9V29h15v-5.1H598.2z
				 M598.2,35.4h15v-5.3h-15V35.4L598.2,35.4z M599.1,14c-0.1-0.2,0-0.3,0.2-0.2c1.9,0.9,3.5,1.8,4.6,2.7s1.7,1.6,1.6,2
				c-0.1,0.7-0.2,1.1-0.6,1.6c-0.3,0.4-0.7,0.7-1.1,0.8c-0.3,0.1-0.7,0.1-0.9,0.1c-0.3-0.1-0.4-0.2-0.6-0.6
				c-0.3-1.2-0.8-2.3-1.3-3.5C600.3,15.6,599.8,14.8,599.1,14z M612.7,5.9C612.7,5.9,612.8,5.9,612.7,5.9h5.1l1.9-2.1
				c0.7,0.3,1.2,0.6,1.7,0.9c0.4,0.3,0.9,0.7,1.3,1.2c0.1,0.1,0.1,0.2,0,0.3l-1,1.1v11.4c-0.1,0.3-0.2,0.7-0.7,0.9
				c-0.3,0.2-0.8,0.4-1.1,0.6c-0.4,0.1-1,0.2-1.6,0.3v-3.1h-6.6c0.1,1,0,1.8-0.2,2.3c-0.2,0.6-0.7,1-1.5,1.3
				c-0.4,0.2-0.8,0.3-1.1,0.2c-0.3-0.1-0.6-0.4-0.6-0.9V4.1c0.8,0.1,1.6,0.3,2.3,0.7C611.5,5.1,612.2,5.5,612.7,5.9z M611.8,6.9v9.4
				h6.7V6.9H611.8z"/>
			<path d="M658.7,29.2c0.6,1.1,0.9,2.2,0.9,3.1c0,1-0.1,1.8-0.6,2.6c-0.3,0.7-1,1.3-1.7,1.7c-0.8,0.4-1.7,0.7-2.7,0.7
				c-0.6,0-1-0.2-1.2-0.6c-0.2-0.4-0.1-0.8,0.3-1.1c0.6-0.4,1.1-0.9,1.5-1.2c0.4-0.4,0.8-0.9,1.1-1.5s0.7-1.1,0.9-1.8
				s0.6-1.5,0.8-2.3L658.7,29.2z M668.2,7c0.6,0.4,1.1,0.9,1.5,1.2c0.3,0.4,0.8,0.9,1.1,1.5l-0.3,0.3h-5.6v1.6v0.2
				c0,0.1,0,0.1,0,0.2s0,0.2,0,0.2v0.3h1.8l2.3-2c0.6,0.4,1.1,0.8,1.5,1.2s0.8,0.9,1.1,1.5l-0.2,0.3h-6.5c0,0.7-0.2,1.2-0.4,1.7
				c-0.2,0.4-0.7,0.8-1.3,1.1c-0.4,0.2-0.8,0.2-1.1,0.1s-0.6-0.4-0.6-0.9v-2h-2.9l-2.7,0.2l-1.3-1.3l4.1,0.1h2.7V9.9h-1.8l-2.7,0.2
				l-1.3-1.2l4.1,0.1h1.7V6.6h-3l-2.7,0.1l-1.3-1.2l4.1,0.1h2.9V1.3c0.9,0.1,1.7,0.3,2.3,0.7c0.7,0.3,1.3,0.7,2,1.1
				c0.1,0.1,0.1,0.1,0,0.2l-1,1v1.2h1.9l2.3-2c0.6,0.4,1.1,0.9,1.5,1.2c0.4,0.4,0.8,0.9,1.1,1.5l-0.2,0.3h-6.6V9h1L668.2,7z
				 M687,18.8c0.7,0.4,1.2,0.9,1.7,1.5c0.4,0.4,0.9,1,1.3,1.7l-0.2,0.2h-5.9V26h-21.6l-3.2,0.2l-1.5-1.3l4.5,0.1h18.2v-2.8h-21.1
				l-3.1,0.2l-1.6-1.5l4.6,0.1h21.2v-2.3H662l-3.5,0.1l-1.2-1.3l4.9,0.1H680l2-2c0.7,0.3,1.1,0.8,1.6,1.1c0.4,0.3,0.9,0.8,1.2,1.3
				c0.1,0.1,0.1,0.1,0,0.3l-1.1,1.1v1.7h0.8L687,18.8z M666.7,28.4c0.1,0.1,0.1,0.1,0,0.2l-0.9,1.1v5.6c1.9,0.2,3.8,0.3,5.5,0.3
				c1.8,0,3.5-0.1,4.9-0.3c0.6-0.1,0.9-0.2,1.1-0.4c0.2-0.2,0.3-0.6,0.6-0.9l2-6.5l0.2,0.3c-0.1,1.1-0.2,2.1-0.2,3s0.1,1.8,0.3,2.8
				c0.2,0.6,0.3,0.9,0.6,1.2c0.2,0.2,0.3,0.4,0.7,0.6c0.4,0.2,0.4,0.6,0.2,1c-0.2,0.3-0.4,0.7-0.8,1c-0.3,0.2-0.7,0.4-1.1,0.6
				s-0.8,0.2-1.1,0.2c-1.1,0.2-2.3,0.3-3.7,0.3c-1.3,0.1-2.6,0.1-3.9,0.1c-1.3,0-2.7-0.1-4-0.1c-1.3-0.1-2.6-0.2-3.8-0.3
				c-0.3-0.1-0.6-0.2-0.7-0.6s-0.2-0.7-0.2-1v-9.7c0.8,0.1,1.5,0.3,2.2,0.6C665.4,27.7,666.1,27.9,666.7,28.4z M672.9,33.1
				c-0.2,0.2-0.4,0.2-0.7,0.1c-0.3-0.1-0.4-0.3-0.6-0.7c-0.1-1-0.4-2-0.8-2.8c-0.4-0.8-1.1-1.7-2.1-2.7c-0.1-0.1,0-0.1,0.1-0.2
				c0.8,0,1.5,0.1,2.2,0.3c0.8,0.2,1.3,0.4,1.8,0.8c0.4,0.3,0.8,0.7,1,1.1s0.3,1,0.2,1.6c-0.1,0.4-0.2,0.9-0.4,1.3
				C673.7,32.5,673.4,32.9,672.9,33.1z M684,6.9c0.6,0.4,1.1,0.8,1.5,1.1c0.4,0.3,0.8,0.9,1.1,1.5l-0.2,0.3h-6.3v1.5v0.2
				c0,0.1,0,0.1,0,0.2c0,0.1,0,0.2,0,0.2c0,0.1,0,0.2,0,0.2c0,0.1,0,0.2,0,0.2h3.1l2.3-2c0.6,0.4,1.1,0.8,1.5,1.2
				c0.3,0.4,0.8,0.9,1.1,1.5l-0.3,0.3h-7.7c-0.1,0.7-0.2,1.1-0.4,1.5c-0.2,0.3-0.7,0.7-1.3,1c-0.4,0.2-0.8,0.2-1.1,0.1
				c-0.3-0.1-0.6-0.4-0.6-0.9v-1.8H676l-2.7,0.2l-1.3-1.3l4.1,0.1h0.6V9.9H676l-2.7,0.2L672,8.8l4.1,0.1h0.6V6.4h-1L673,6.5
				l-1.3-1.3l4.1,0.1h0.9v-4c0.9,0.1,1.7,0.3,2.3,0.7s1.3,0.7,2,1.1c0.1,0.1,0.1,0.1,0,0.2l-0.9,1v1.1h2.1l2.3-2
				c0.6,0.4,1.1,0.8,1.5,1.2c0.3,0.4,0.8,0.9,1.1,1.5l-0.3,0.3H680V9h1.6L684,6.9z M681,28.3c-0.1-0.2,0-0.3,0.2-0.3
				c1,0.4,2,0.9,2.9,1.5s1.7,1,2.3,1.6c0.7,0.4,1.1,1,1.5,1.3c0.3,0.4,0.6,0.8,0.4,1c-0.1,1.2-0.8,2.2-2.1,2.9
				c-0.8,0.1-1.3-0.2-1.5-0.9c-0.4-1.6-1-3-1.8-4.2C682.2,29.9,681.5,28.9,681,28.3z"/>
			<path d="M735.3,35.1c-0.2,0.6-0.4,1-0.9,1.2c-0.4,0.3-0.8,0.6-1.2,0.7c-0.4,0.2-1,0.3-1.6,0.3v-4.8h-7c0,0.2,0,0.6,0,0.8
				s0,0.6,0.1,0.9c0.1,1-0.1,1.8-0.4,2.5c-0.3,0.7-0.9,1.1-1.7,1.3c-0.9,0.3-1.3,0.1-1.3-0.8V7.7c0.7,0.2,1.3,0.3,2,0.7
				c0.6,0.2,1.1,0.6,1.7,0.9l2.3-7.3c0.7,0.2,1.2,0.6,1.7,0.8c0.4,0.2,0.9,0.6,1.5,1L727,9.6h4.1l2.1-2.5c0.8,0.3,1.6,0.8,2.1,1.2
				c0.6,0.4,1.1,0.9,1.7,1.5c0.1,0.1,0.1,0.3,0,0.4l-1.3,1.5V35C735.6,35.1,735.3,35.1,735.3,35.1z M724.5,20h7.1v-9.5h-7.1V20z
				 M724.5,31.4h7.1V21h-7.1V31.4z M740.6,1.2c0.8,0.3,1.6,0.6,2.2,0.8c0.6,0.2,1.1,0.4,1.6,0.6c0.4,0.1,0.8,0.2,0.8,0.2
				c0.2,0.1,0.1,0.2-0.1,0.4L744,3.9c-0.4,1.9-1.1,3.8-1.8,5.6h8.8l2.6-2.6c0.8,0.4,1.3,1,1.8,1.5c0.4,0.4,1,1.1,1.6,2
				c0.1,0.1,0,0.2-0.1,0.3l-1.5,1.1c0.1,3.5,0,6.9-0.2,10.3s-0.4,6.9-0.9,10.5c-0.1,0.6-0.2,1-0.6,1.6s-0.7,1-1.1,1.6
				c-0.4,0.4-1,1-1.7,1.3c-0.6,0.4-1.2,0.8-1.9,1.1c-0.3,0.1-0.7,0.3-1,0.4c-0.3,0.1-0.7,0.2-1.1,0.2c-0.3,0-0.7-0.1-0.9-0.2
				c-0.2-0.2-0.4-0.4-0.4-1c-0.2-1-0.7-1.9-1.5-2.7s-1.8-1.5-3-2l-0.1-0.4l6.5,0.7c0.7,0.1,1.2,0.1,1.8,0.1s0.8-0.3,1-0.9
				c0.3-1.8,0.6-3.6,0.8-5.3c0.2-1.7,0.3-3.4,0.4-5.1c0.1-1.8,0.1-3.5,0.1-5.4c0-1.8-0.1-3.8-0.1-5.9h-9.8c-0.7,1.7-1.5,3.1-2.5,4.7
				c-0.9,1.5-2,2.9-3.4,4.1l-0.6-0.2c0.8-1.5,1.5-2.9,2-4.4c0.6-1.5,1-2.9,1.3-4.4s0.7-3,1-4.6C740.1,4.7,740.3,3,740.6,1.2z
				 M739.6,17.3c-0.1-0.3,0-0.4,0.3-0.3c2.3,1.2,4,2.3,5.1,3.2s1.7,1.6,1.6,2.2c-0.2,1.5-1,2.5-2.5,3.1c-0.9,0.1-1.5-0.2-1.7-1.1
				c-0.3-1.6-0.7-2.9-1.1-4C741.1,19.3,740.4,18.2,739.6,17.3z"/>
			<path d="M820.6,14c-0.1,2-0.2,4-0.2,5.9c0,0.8-0.1,1.7-0.1,2.6s-0.1,1.7-0.1,2.5s-0.1,1.6-0.1,2.3c-0.1,0.7-0.1,1.3-0.1,1.9
				c-0.1,0.8-0.2,1.5-0.2,2c-0.1,0.6-0.2,1-0.3,1.3c-0.1,0.3-0.2,0.7-0.3,1c-0.1,0.2-0.2,0.6-0.4,0.8c-0.7,1.1-1.2,2-1.9,2.6
				s-1.5,1.1-2.5,1.7c-0.3,0.2-0.7,0.4-1.1,0.6c-0.3,0.1-0.7,0.2-1,0.2s-0.6,0-0.8-0.2c-0.2-0.1-0.3-0.4-0.4-0.8
				c-0.1-0.7-0.3-1.2-0.7-1.7c-0.3-0.4-0.7-0.9-1.2-1.2c-0.4-0.3-1-0.7-1.6-1s-1.1-0.6-1.8-0.8l0.4-0.3c0.4,0,1,0.1,1.6,0.1
				s1.2,0.1,1.8,0.1s1.2,0,1.8,0s1,0,1.5,0c0.7-0.1,1.1-0.2,1.5-0.4c0.3-0.2,0.6-0.6,0.8-0.9c0.3-0.6,0.6-1.2,0.8-2.2
				s0.3-2.1,0.6-3.5l0.3-13.7H806l-0.3,3.5c-0.2,3-0.8,5.8-1.7,8.3c-0.9,2.6-2.2,4.8-3.9,6.8s-3.9,3.8-6.5,5.4
				c-2.6,1.6-5.7,2.8-9.3,3.9l-0.6-0.6c3.1-1.2,5.7-2.7,7.8-4.2c2.1-1.6,3.9-3.2,5.3-5.3c1.3-1.9,2.5-4,3.2-6.4s1.3-4.9,1.7-7.8
				l0.2-3.7h-9.3l-2.7,0.2l-1.6-1.6l4.1,0.1h9.5l0.6-9.8c1,0.2,1.9,0.6,2.7,0.9s1.7,0.9,2.5,1.6c0.1,0.1,0.1,0.1,0.1,0.2
				s-0.1,0.2-0.1,0.2l-1.1,0.9l-0.6,6h9.7l2.5-2.3c0.7,0.3,1.3,0.7,2.1,1.3c0.7,0.6,1.3,1.1,1.7,1.6c0.1,0.1,0.1,0.2,0,0.3L820.6,14
				z"/>
			<path d="M887.5,12.7c0.7,0.4,1.2,1,1.9,1.6c0.6,0.6,1.1,1.1,1.6,1.8l-0.3,0.3H858l-4,0.2l-1.5-1.5l5.5,0.1h26.8L887.5,12.7z
				 M870.3,36.9v-3.5h-8.2l-3,0.2l-1.1-1.3h3.8h8.5v-3.6h-6c-0.1,0.6-0.2,0.9-0.6,1.2c-0.2,0.3-0.7,0.7-1.2,0.9
				c-0.4,0.2-0.8,0.3-1.2,0.2c-0.3-0.1-0.6-0.4-0.6-0.9V17.4c1.6,0.3,3,0.8,4.2,1.7h14.4l1.9-2.1c0.6,0.2,1.1,0.6,1.7,1
				c0.6,0.4,1,0.8,1.5,1.2c0.1,0.1,0.1,0.2,0,0.3l-1.2,1.5v7.8c-0.2,0.4-0.4,0.8-0.8,1c-0.3,0.2-0.8,0.4-1.1,0.6
				c-0.4,0.1-1,0.2-1.5,0.2v-1.8h-6v3.6h7.4l2-2c0.4,0.3,0.9,0.7,1.5,1.2s1,1,1.5,1.7l-0.2,0.3h-12.2v3.5H884l2.6-2.3
				c0.7,0.4,1.2,0.8,1.8,1.3c0.6,0.4,1.1,1.1,1.6,1.8l-0.3,0.3h-32.2l-2.6,0.2l-1.5-1.5l4.2,0.1L870.3,36.9L870.3,36.9L870.3,36.9z
				 M884.1,3.8c0.2,0.2,0.2,0.3,0,0.6L883,5.5v7.4c-0.2,0.3-0.4,0.6-0.9,0.8c-0.3,0.2-0.8,0.3-1.1,0.3c-0.4,0.1-1,0.1-1.5,0.1V12
				H865c-0.1,1.5-0.7,2.3-2,2.9c-0.4,0.2-0.9,0.2-1.2,0.2c-0.3-0.1-0.6-0.3-0.6-0.8V2c0.7,0.2,1.3,0.4,2,0.7
				c0.7,0.2,1.3,0.6,1.9,0.9h14.2l2-2.1C882.4,2.1,883.3,2.8,884.1,3.8z M864.2,23.2h6.1v-3.1h-6.1V23.2z M864.2,26.8
				c0,0.1,0,0.2,0,0.4c0,0.1,0,0.2,0,0.4h6v-3.5h-6V26v0.2c0,0.1,0,0.1,0,0.2C864.2,26.7,864.2,26.7,864.2,26.8z M864.6,4.7v2.7
				h14.7V4.7H864.6z M864.6,8.6c0,0.8,0,1.6,0.1,2.2h14.6V8.5L864.6,8.6L864.6,8.6L864.6,8.6z M873.8,20v3.2h6v-3.1h-6V20z
				 M873.8,27.6h6v-3.5h-6V27.6z"/>
		</g>
		<g>
			<g>
				<g>
					<g>
						<g>
							<path class="st1" d="M450.3,72.8V49.7h3.5V73L450.3,72.8L450.3,72.8z"/>
						</g>
					</g>
					<g>
						<g>
							<path class="st1" d="M458.7,55h3.4v2.5h0.1c0.7-1.1,2.2-2.7,5.3-2.7c3.7,0,6.4,2.3,6.4,6.7V73h-3.5V62.1
								c0-2.9-1.7-4.4-4.1-4.4c-2.8,0-4.1,2-4.1,4.4v10.7h-3.4L458.7,55L458.7,55z"/>
						</g>
					</g>
					<g>
						<g>
							<path class="st1" d="M484.1,54.6c4.2,0,6.5,2.3,6.5,5.4h-3.1c-0.1-1.3-0.9-2.8-3.5-2.8c-2,0-3.4,0.9-3.4,2.5
								c0,1.9,2.5,2.3,4.5,2.7c3.4,0.6,6,1.6,6,5c0,3.6-2.9,5.7-7.3,5.7c-4.1,0-6.9-2-6.9-5.3h3.4c0.2,1.6,1.6,2.6,3.8,2.6
								c2.6,0,3.7-1.2,3.7-2.6c0-1.9-2-2.2-4.5-2.8c-3.4-0.7-6-1.8-6-5C477.3,56.3,480.6,54.6,484.1,54.6z"/>
						</g>
					</g>
					<g>
						<g>
							<path class="st1" d="M498.3,70.5h-0.1v8.6h-3.5V55h3.4v2.6h0.1c1-1.7,2.8-2.9,5.3-2.9c4,0,6.9,3.1,6.9,8.4v1.6
								c0,5.3-2.9,8.4-7,8.4C501.1,73.2,499.3,72.1,498.3,70.5z M506.9,64.5v-1.2c0-3.6-1.6-5.7-4.2-5.7c-2.8,0-4.5,2.2-4.5,5.7v1.3
								c0,3.5,1.8,5.8,4.6,5.8C505.2,70.3,506.9,68.3,506.9,64.5z"/>
						</g>
					</g>
					<g>
						<g>
							<path class="st1" d="M516.2,48.6c1.1,0,2.1,0.9,2.1,2s-0.9,2-2.1,2c-1.1,0-2.1-0.9-2.1-2C514.1,49.5,515.1,48.6,516.2,48.6z
								 M514.5,55h3.5v17.9h-3.5V55z"/>
						</g>
					</g>
					<g>
						<g>
							<path class="st1" d="M522.7,55h3.5v2.2h0.1c0.4-1.1,1.8-2.6,4.4-2.6c0.4,0,0.9,0,1.2,0.1v3.1c-0.3-0.1-1-0.1-1.6-0.1
								c-3.1,0-4.1,1.9-4.1,4.4V73h-3.5L522.7,55L522.7,55z"/>
						</g>
					</g>
					<g>
						<g>
							<path class="st1" d="M533.8,64.8v-1.9c0-4.9,2.9-8.2,7.6-8.2s7.6,3.4,7.6,8.4v1.7h-11.7v0.3c0,3.1,1.7,5.4,4.4,5.4
								c2,0,3.2-1,3.8-2.6h3.4c-0.6,2.9-2.9,5.4-7.1,5.4C536.8,73.2,533.8,69.9,533.8,64.8z M545.6,62.2L545.6,62.2
								c0-2.7-1.7-4.8-4.1-4.8c-2.6,0-4.1,2.1-4.1,4.8l0,0H545.6z"/>
						</g>
					</g>
					<path d="M596,50.2v0.9c-0.6,0.1-1,0.1-1.5,0.2c-0.4,0.1-0.8,0.3-1.1,0.6c-0.3,0.2-0.7,0.6-0.9,1c-0.3,0.4-0.6,1-0.9,1.7
						l-7.7,18.7h-0.4L578,59.6l-6.5,13.6h-0.6L563,54.3c-0.2-0.6-0.4-1-0.7-1.3s-0.4-0.7-0.8-1c-0.3-0.2-0.7-0.4-1.1-0.7
						c-0.4-0.1-0.9-0.2-1.6-0.3v-0.9h10.9V51c-1,0.1-1.8,0.2-2.3,0.6c-0.6,0.2-0.8,0.7-0.8,1.1c0,0.2,0,0.6,0.1,0.9
						c0.1,0.3,0.2,0.7,0.4,1.1l5.5,13l4.5-9.5l-1.9-4.7c-0.2-0.4-0.3-0.8-0.6-1.1s-0.3-0.6-0.6-0.8c-0.2-0.2-0.4-0.3-0.8-0.4
						c-0.3-0.1-0.7-0.1-1.1-0.2v-0.9h9.9V51c-1.9,0.2-2.9,0.7-2.9,1.3c0,0.2,0.1,0.6,0.2,0.8c0.1,0.3,0.2,0.8,0.4,1.2l5,12.7
						l5.1-12.4c0.2-0.4,0.3-0.8,0.3-1.1c0.1-0.3,0.1-0.6,0.1-0.8c0-0.7-0.3-1.1-0.9-1.3c-0.6-0.2-1.5-0.4-2.6-0.6V50L596,50.2z"/>
					<path d="M595.2,72.1c0.6,0,1-0.1,1.3-0.2s0.6-0.2,0.8-0.3c0.2-0.1,0.3-0.3,0.3-0.6c0-0.2,0.1-0.4,0.1-0.7v-8.2
						c0-0.9-0.2-1.5-0.6-1.7c-0.3-0.2-1-0.3-2-0.1v-0.7l5.5-2.1l0.3,0.2v12.5c0,0.2,0,0.4,0.1,0.7c0,0.2,0.1,0.3,0.3,0.6
						c0.2,0.1,0.4,0.2,0.8,0.3c0.3,0.1,0.8,0.1,1.3,0.2v1h-8.3L595.2,72.1L595.2,72.1z M597.2,51.7c0-0.6,0.2-1.1,0.7-1.5
						c0.4-0.4,0.9-0.6,1.5-0.6s1.1,0.2,1.5,0.6c0.4,0.4,0.6,0.9,0.6,1.5s-0.2,1-0.6,1.5c-0.3,0.4-0.9,0.7-1.5,0.7s-1.1-0.2-1.5-0.6
						C597.4,52.8,597.2,52.3,597.2,51.7z"/>
					<path d="M607.8,71.3c0.8,0.6,1.6,0.8,2.7,0.8c0.7,0,1.2-0.1,1.6-0.4c0.4-0.3,0.6-0.8,0.6-1.3c0-0.8-0.3-1.3-1-1.8
						s-1.6-1-2.8-1.6c-1-0.6-1.8-1.1-2.3-1.7c-0.6-0.6-0.8-1.5-0.8-2.5c0-0.6,0.1-1.1,0.3-1.6c0.2-0.6,0.6-1,1-1.3s1-0.7,1.7-0.9
						s1.3-0.3,2.1-0.3c0.6,0,1.2,0.1,1.8,0.2c0.6,0.1,1.1,0.2,1.7,0.4l0.2,3l-0.7,0.2c-0.3-1-0.9-1.7-1.5-2.1
						c-0.6-0.4-1.3-0.7-2.3-0.7c-0.7,0-1.2,0.2-1.7,0.6c-0.4,0.3-0.6,0.8-0.6,1.5c0,0.3,0.1,0.6,0.2,0.8c0.1,0.2,0.3,0.4,0.6,0.7
						c0.3,0.2,0.7,0.4,1.1,0.8c0.4,0.2,1.1,0.6,1.8,1c1.2,0.6,2,1.2,2.6,1.9c0.6,0.7,0.8,1.5,0.8,2.5c0,0.7-0.1,1.2-0.4,1.8
						c-0.3,0.6-0.7,1-1.2,1.3c-0.4,0.3-1.1,0.7-1.7,0.8c-0.7,0.2-1.3,0.2-2,0.2c-0.8,0-1.6-0.1-2.2-0.2c-0.7-0.1-1.3-0.3-1.9-0.6
						l-0.3-3.5l0.6-0.2C606.5,69.8,607,70.7,607.8,71.3z"/>
					<path d="M632,70.4c0,0.6,0.1,1,0.4,1.2c0.3,0.2,1,0.3,1.9,0.4v1h-5.7v-1c-0.6,0.3-1.2,0.6-2,0.9c-0.8,0.2-1.6,0.3-2.6,0.3
						c-0.8,0-1.7-0.2-2.5-0.6c-0.8-0.3-1.6-0.8-2.2-1.3c-0.7-0.6-1.1-1.3-1.6-2.1c-0.4-0.8-0.6-1.7-0.6-2.7c0-1.5,0.2-2.7,0.8-3.7
						c0.4-1,1.1-1.9,1.9-2.5c0.8-0.7,1.7-1.1,2.7-1.5c1-0.3,1.9-0.4,2.9-0.4c0.6,0,1,0,1.6,0.1s1.1,0.2,1.6,0.3v-7.6
						c0-0.4-0.1-0.8-0.2-1c-0.1-0.2-0.3-0.4-0.6-0.6s-0.4-0.1-0.8-0.1s-0.7,0-1.1,0.1V49l5.6-2.7l0.3,0.2L632,70.4L632,70.4z
						 M625.7,71.7c0.6,0,1-0.1,1.6-0.2c0.6-0.2,1-0.4,1.5-0.7v-10c-1.2-0.9-2.5-1.3-3.7-1.3c-0.7,0-1.2,0.1-1.8,0.4
						c-0.6,0.3-1,0.8-1.3,1.2c-0.3,0.6-0.7,1.1-0.8,1.8c-0.2,0.7-0.2,1.5-0.2,2.1c0,1,0.1,1.8,0.3,2.7c0.2,0.8,0.6,1.6,0.9,2.1
						c0.4,0.6,0.9,1.1,1.6,1.5C624.2,71.5,624.9,71.7,625.7,71.7z"/>
					<path d="M651.8,65.7c0,1.1-0.2,2.1-0.6,3.1c-0.4,0.9-1,1.7-1.7,2.3c-0.8,0.7-1.7,1.1-2.7,1.6c-1,0.3-2.2,0.6-3.5,0.6
						c-1,0-2-0.2-2.9-0.6c-0.9-0.3-1.7-0.8-2.2-1.5c-0.7-0.6-1.1-1.3-1.6-2.2c-0.3-0.9-0.6-1.8-0.6-2.9s0.2-2.2,0.6-3.1
						c0.4-1,1-1.8,1.7-2.5c0.8-0.7,1.6-1.2,2.6-1.7c1-0.4,2.1-0.6,3.4-0.6c1,0,2,0.2,2.9,0.6c0.9,0.3,1.7,0.9,2.3,1.6
						c0.7,0.7,1.2,1.5,1.6,2.3C651.7,63.6,651.8,64.6,651.8,65.7z M648.4,66.9c0-0.9-0.1-1.8-0.3-2.7c-0.2-0.9-0.6-1.7-1-2.3
						c-0.4-0.7-0.9-1.2-1.6-1.7c-0.6-0.4-1.2-0.7-2-0.7c-0.4,0-1,0.1-1.5,0.3c-0.4,0.2-0.9,0.6-1.2,1s-0.7,1-0.9,1.7
						s-0.3,1.5-0.3,2.2c0,1,0.1,1.9,0.3,2.8s0.6,1.7,1,2.3s1,1.2,1.6,1.6c0.7,0.4,1.3,0.6,2,0.6c0.6,0,1-0.1,1.5-0.3
						c0.4-0.2,0.8-0.6,1.1-1s0.6-1,0.8-1.6C648,68.6,648.4,67.6,648.4,66.9z"/>
					<path d="M680.2,71.6c0.3,0.2,0.9,0.3,1.8,0.4v1h-7.7v-0.9c0.7-0.1,1.2-0.2,1.6-0.4c0.3-0.2,0.6-0.7,0.6-1.2V64
						c0-0.8,0-1.5-0.1-2c-0.1-0.6-0.2-0.9-0.4-1.2s-0.6-0.6-0.9-0.7s-0.8-0.2-1.2-0.2c-0.7,0-1.3,0.1-2.1,0.4
						c-0.8,0.2-1.5,0.7-2.2,1c0.1,0.6,0.1,1.1,0.1,1.9v7.1c0,0.6,0.2,1,0.6,1.2c0.3,0.2,1,0.3,1.8,0.4v0.9h-7.7V72
						c0.7-0.1,1.2-0.2,1.6-0.4c0.3-0.2,0.6-0.7,0.6-1.2v-6.5c0-0.8,0-1.5-0.1-2s-0.2-0.9-0.4-1.2s-0.4-0.6-0.8-0.7
						c-0.3-0.1-0.7-0.2-1.1-0.2c-0.6,0-1.2,0.1-2,0.4c-0.7,0.2-1.5,0.7-2.3,1.1v8.9c0,0.6,0.2,1,0.6,1.2c0.3,0.2,1,0.3,1.9,0.4v0.9
						h-8.2v-0.9c0.8-0.1,1.5-0.2,1.8-0.4c0.3-0.2,0.6-0.7,0.6-1.2v-7.8c0-0.9-0.2-1.5-0.6-1.7c-0.3-0.2-1-0.3-1.9-0.2v-0.6l5.4-2.1
						l0.3,0.2v2.3c1.2-0.8,2.2-1.2,3.1-1.6c0.9-0.3,1.8-0.6,2.8-0.6c1.1,0,2,0.2,2.6,0.6c0.6,0.3,1,0.9,1.2,1.6
						c2.1-1.5,4.1-2.1,5.9-2.1c1,0,1.9,0.1,2.5,0.4c0.7,0.2,1.1,0.7,1.5,1.1s0.6,1,0.7,1.6c0.1,0.6,0.1,1.2,0.1,1.9v7.1
						C679.7,70.9,679.9,71.4,680.2,71.6z"/>
					<path d="M686.9,73.3c-0.7,0-1.2-0.2-1.7-0.7s-0.7-1-0.7-1.7s0.2-1.2,0.7-1.7c0.4-0.4,1-0.7,1.7-0.7s1.2,0.2,1.7,0.7
						c0.4,0.4,0.7,1,0.7,1.7s-0.2,1.2-0.7,1.7C688.1,73.1,687.6,73.3,686.9,73.3z"/>
				</g>
			</g>
		</g>
	</g>
</g>
</svg>
