<?xml version="1.0" encoding="UTF-8"?>
<svg width="24px" height="24px" viewBox="0 0 24 24" version="1.1" xmlns="http://www.w3.org/2000/svg" xmlns:xlink="http://www.w3.org/1999/xlink">
    <title>计算机考试备份 2</title>
    <defs>
        <linearGradient x1="50%" y1="0%" x2="50%" y2="100%" id="linearGradient-1">
            <stop stop-color="#389EF7" offset="0%"></stop>
            <stop stop-color="#3E89FD" offset="100%"></stop>
        </linearGradient>
        <linearGradient x1="50%" y1="0%" x2="50%" y2="100%" id="linearGradient-2">
            <stop stop-color="#389EF7" offset="0%"></stop>
            <stop stop-color="#3E89FD" offset="100%"></stop>
        </linearGradient>
    </defs>
    <g id="计算机考试备份-2" stroke="none" stroke-width="1" fill="none" fill-rule="evenodd">
        <g id="编组" transform="translate(0.000000, 1.454545)" fill-rule="nonzero">
            <path d="M22.5454545,0 C23.3487778,-2.06600667e-15 24,0.651222182 24,1.45454545 L24,16.7272727 C24,17.530596 23.3487778,18.1818182 22.5454545,18.1818182 L1.45454545,18.1818182 C0.651222182,18.1818182 7.64512542e-16,17.530596 0,16.7272727 L0,1.45454545 C-9.83787274e-17,0.651222182 0.651222182,8.13701906e-16 1.45454545,0 L22.5454545,0 Z M7.52650279,5.69465539 C7.19344016,5.74572765 5.9651899,6.71103791 5.60896339,6.98743867 C5.34559894,7.18949721 5.12563326,7.329891 5.15686099,7.65882335 C5.15700438,7.72829133 5.16370712,7.92291969 5.29553712,7.90256389 C5.34401359,7.8932999 5.55555723,7.77015612 5.59931609,7.73760736 L5.59931609,7.73760736 L6.66815043,7.15604356 L6.69710625,7.17469635 L6.33066298,7.82919804 C5.85183538,8.70673132 5.41216438,9.60351774 5.01288541,10.5171056 C4.77512033,11.0741646 4.4706923,12.4056713 4.56328099,12.9711904 C4.66047015,13.5577593 5.18846052,13.5558616 5.68442875,13.721487 C5.7659581,13.7620232 5.85595553,13.7844894 5.94783962,13.7872428 C6.05543136,13.7715191 6.10446725,13.7061971 6.08867462,13.6050527 C6.06414962,13.4707487 6.00893808,13.3514998 5.98656253,13.2137214 C5.86070769,12.4583278 6.57490499,10.7153867 6.88288129,9.98544163 C7.99787764,7.30941002 8.21142952,6.82362422 8.22328492,6.56091129 L8.22317404,6.51076014 C8.22118613,6.47047467 8.21489136,6.43274274 8.20752932,6.38845709 C8.17764252,6.21857577 7.83881488,5.64803235 7.52650279,5.69465539 Z M12.1820853,5.44987476 L12.078255,5.45800118 C11.3276314,5.5763888 9.70667715,6.74769984 8.87111157,8.01336312 C8.17024225,9.08112019 7.56853328,10.6247507 7.77747716,11.9079471 C7.93725436,12.8752652 8.72505959,13.8096698 9.77588584,13.5614927 C12.5236875,12.9273821 14.0466686,9.62913853 13.6926445,7.44448091 C13.6181566,6.98877063 13.4674676,6.43090222 12.9224295,6.35218555 C12.9422283,6.32533599 12.9787662,6.30258719 13.0203937,6.28086226 L13.0203937,6.28086226 L13.1488954,6.21568214 C13.2091311,6.18155098 13.2546072,6.14280048 13.2460066,6.08904613 C13.2058705,5.83819246 12.5511651,5.38352899 12.078255,5.45800118 Z M18.335941,5.12686581 L18.2321208,5.1349917 C17.4815702,5.2533755 15.8607782,6.42467803 15.0252996,7.69033678 C14.3245032,8.75809003 13.7228601,10.3017171 13.9317903,11.5849142 C14.091557,12.5522328 14.879291,13.4866411 15.9300146,13.2384694 C18.6809122,12.6041966 20.2037298,9.30596159 19.8463057,7.12035289 L19.8463057,7.12035289 L19.8276325,7.01388046 C19.7463674,6.58277773 19.5792824,6.10184419 19.0762184,6.02918013 C19.0960152,6.00233067 19.1325494,5.97958207 19.1741728,5.95785735 L19.1741728,5.95785735 L19.3026617,5.8926779 C19.3628915,5.85854705 19.408363,5.81979679 19.3997629,5.76604241 C19.3596294,5.5151886 18.7049849,5.06052194 18.2321208,5.1349917 Z M12.3029577,6.97751892 C12.6252944,6.92674778 12.8122844,7.34042536 12.8517123,7.57776485 C12.9721206,8.33032583 12.2101584,9.84170105 11.7937922,10.4801048 L11.7937922,10.4801048 L10.8302012,11.6847213 L10.7584271,11.767649 C10.486201,12.0625116 9.90351325,12.522546 9.59019668,12.5718178 C9.26785999,12.6225889 9.11227228,11.9712476 9.09072896,11.7532977 C8.96802044,10.5706043 9.61901634,8.8086997 11.5071788,7.32864466 C11.517567,7.39811515 11.5626616,7.52900603 11.6552132,7.51399216 C11.7700172,7.49442427 12.0008076,7.0272321 12.3029577,6.97751892 Z M18.4568095,6.6545102 C18.7791148,6.6037407 18.966089,7.01741911 19.0055142,7.25475875 C19.1259147,8.00732014 18.3672207,9.51513625 17.9476518,10.1559664 L17.9476518,10.1559664 L16.9842188,11.3617039 L16.912452,11.4446312 C16.6402536,11.7394924 16.0576245,12.1995236 15.7443384,12.2487938 C15.422033,12.2995633 15.266457,11.6482214 15.2449147,11.4302715 C15.122212,10.2475778 15.7731362,8.48567692 17.6611091,7.00563182 C17.6714966,7.07510235 17.7188304,7.20587589 17.8091302,7.19098002 C17.923923,7.17141272 18.1546888,6.70422184 18.4568095,6.6545102 Z" id="形状结合" fill="url(#linearGradient-1)"></path>
            <rect id="矩形" fill="url(#linearGradient-2)" x="4" y="19.2727273" width="16" height="2.18181818" rx="1.09090909"></rect>
        </g>
    </g>
</svg>