<?xml version="1.0" encoding="UTF-8"?>
<svg width="62px" height="62px" viewBox="0 0 62 62" version="1.1" xmlns="http://www.w3.org/2000/svg" xmlns:xlink="http://www.w3.org/1999/xlink">
    <title>wps office/红</title>
    <defs>
        <linearGradient x1="50%" y1="99.9056275%" x2="50%" y2="3.36254504%" id="linearGradient-1">
            <stop stop-color="#FF5100" offset="0.09765625%"></stop>
            <stop stop-color="#FF1522" offset="100%"></stop>
        </linearGradient>
        <linearGradient x1="54.4194892%" y1="83.5378358%" x2="22.4690972%" y2="11.2514652%" id="linearGradient-2">
            <stop stop-color="#FD7821" stop-opacity="0" offset="0%"></stop>
            <stop stop-color="#881000" stop-opacity="0.66" offset="100%"></stop>
        </linearGradient>
        <linearGradient x1="38.1916607%" y1="66.7112193%" x2="63.3965937%" y2="0%" id="linearGradient-3">
            <stop stop-color="#FD7821" stop-opacity="0" offset="0%"></stop>
            <stop stop-color="#FF5100" offset="66.6477654%"></stop>
            <stop stop-color="#FF9B27" offset="100%"></stop>
        </linearGradient>
    </defs>
    <g id="页面-1" stroke="none" stroke-width="1" fill="none" fill-rule="evenodd">
        <g id="02状态标注" transform="translate(-193.000000, -2689.000000)">
            <g id="头图视觉-wps+" transform="translate(163.000000, 2281.000000)">
                <g id="wps-office/红" transform="translate(30.000000, 408.000000)">
                    <rect id="矩形" x="0" y="0" width="62" height="62"></rect>
                    <g id="编组-6" transform="translate(4.000000, 8.000000)">
                        <path d="M29.4422309,28.8535267 L33.8519285,19.4563397 L37.6743836,27.6020767 L46.3316639,9.15317402 C46.5283828,8.73395544 46.3467731,8.23521831 45.9260273,8.03921347 C45.8145207,7.98726799 45.6929288,7.96034483 45.5698363,7.96034483 L36.9255133,7.96034483 L32.6902943,16.9810914 L32.6913711,16.9833957 L28.2818838,26.3805828 L28.2797557,26.3757647 L22.9599293,37.7071109 C22.0295998,39.957231 19.451336,41.0271327 17.2012158,40.0968033 C16.1197087,39.6496458 15.2603682,38.7908292 14.8125514,37.709595 L14.8115225,37.7071109 L14.4794506,37.0003112 L14.4796352,36.9996828 L0.476124799,7.15695008 C-0.704174605,4.64163211 0.385500078,1.64921533 2.90998132,0.473200129 C3.57901445,0.16153486 4.30855686,-1.0658141e-14 5.04710245,-1.0658141e-14 L20.4408771,-1.0658141e-14 C23.053142,-1.0658141e-14 25.4292743,1.50663094 26.5355952,3.86446958 L27.1185932,5.10698017 L22.704901,14.495369 L20.0916066,8.92639985 C19.8150127,8.33697406 19.2209976,7.96034483 18.5679564,7.96034483 L10.9939527,7.96034483 C10.5294902,7.96034483 10.1529691,8.33549933 10.1529691,8.79827586 C10.1529691,8.92092156 10.1799903,9.04207212 10.232125,9.15317402 L18.8893328,27.6020767 L23.8721607,16.9829767 L23.8646174,16.9668466 L28.2783096,7.57845776 L28.281648,7.58558017 L30.0281489,3.86432417 C31.1345017,1.50656451 33.510592,-1.0658141e-14 36.1227987,-1.0658141e-14 L51.5166865,-1.0658141e-14 C54.303461,-1.0658141e-14 56.5625882,2.25092702 56.5625882,5.02758621 C56.5625882,5.76345105 56.4004648,6.49034539 56.0876642,7.15695008 L41.7522664,37.7071109 C40.8210947,39.9592681 38.2404966,41.0301385 35.9883393,40.0989668 C34.906757,39.6517782 34.0471328,38.7932274 33.5985932,37.7122046 L33.5964797,37.7071109 L29.4422309,28.8535267 Z" id="形状结合" fill="url(#linearGradient-1)"></path>
                        <path d="M51.5166865,-1.77635684e-15 C54.303461,-1.77635684e-15 56.5625882,2.25092702 56.5625882,5.02758621 C56.5625882,5.76345105 56.4004648,6.49034539 56.0876642,7.15695008 L48.6293306,23.049 L41.8483306,18.707 L46.3316639,9.15317402 C46.5283828,8.73395544 46.3467731,8.23521831 45.9260273,8.03921347 C45.8145207,7.98726799 45.6929288,7.96034483 45.5698363,7.96034483 L41.1003306,7.96118649 L41.0995133,7.96 L36.9255133,7.96034483 L39.2133509,3.08362829 C39.976251,1.27223312 41.7731212,5.00932629e-13 43.8682198,5.00932629e-13 L43.9025133,0.001 L43.9025219,2.63788991e-13 L51.5166865,-1.77635684e-15 Z" id="形状结合" fill="url(#linearGradient-2)" style="mix-blend-mode: multiply;"></path>
                        <path d="M32.6902943,16.9810914 L32.6913711,16.9833957 L28.2818838,26.3805828 L28.2797557,26.3757647 L22.9599293,37.7071109 C22.0295998,39.957231 19.451336,41.0271327 17.2012158,40.0968033 C16.1197087,39.6496458 15.2603682,38.7908292 14.8125514,37.709595 L14.8115225,37.7071109 L14.4794506,37.0003112 L14.4796352,36.9996828 L13.159,34.187 L17.791,25.262 L18.8893328,27.6020767 L23.8721607,16.9829767 L23.8646174,16.9668466 L28.2783096,7.57845776 L28.281648,7.58558017 L30.0281489,3.86432417 C31.1345017,1.50656451 33.510592,-2.13162387e-13 36.1227987,-2.13162387e-13 L45.473,-0.001 L45.472,-1.4688294e-13 L43.9025219,3.73039273e-14 L43.9025133,0.001 L43.8682198,2.74447565e-13 C41.7731212,2.74447565e-13 39.976251,1.27223312 39.2133509,3.08362829 L39.2133509,3.08362829 L36.9255133,7.96034483 L32.6902943,16.9810914 Z" id="形状结合" fill="url(#linearGradient-3)"></path>
                    </g>
                </g>
            </g>
        </g>
    </g>
</svg>